<svg viewBox="0 0 666.67 666.67" xmlns="http://www.w3.org/2000/svg">
 <defs>
  <clipPath id="n">
   <path d="m0 500h500v-500h-500z"/>
  </clipPath>
  <clipPath id="h">
   <path d="m0 500h500v-500h-500z"/>
  </clipPath>
  <clipPath id="c">
   <path d="m0 500h500v-500h-500z"/>
  </clipPath>
  <clipPath id="s">
   <path d="m168.21 232.58h72.482v-79.951h-72.482z"/>
  </clipPath>
  <clipPath id="o">
   <path d="m81.386 460.24h231.24v-316.05h-231.24z"/>
  </clipPath>
  <clipPath id="m">
   <path d="m0 500h500v-500h-500z"/>
  </clipPath>
  <clipPath id="l">
   <path d="m113.62 429.42h238.24v-137.38h-238.24z"/>
  </clipPath>
  <clipPath id="k">
   <path d="m113.62 442.69h238.24v-150.72h-238.24z"/>
  </clipPath>
  <clipPath id="j">
   <path d="m119.16 439.28h232.71v-147.31h-232.71z"/>
  </clipPath>
  <clipPath id="i">
   <path d="m113.63 308.87h6.16v-16.9h-6.16z"/>
  </clipPath>
  <clipPath id="g">
   <path d="m125.8 306.3h40.468v-29.145h-40.468z"/>
  </clipPath>
  <clipPath id="f">
   <path d="m193.82 324.7h140.2v-87.124h-140.2z"/>
  </clipPath>
  <clipPath id="e">
   <path d="m193.82 273.1h2.087v-2.696h-2.087z"/>
  </clipPath>
  <clipPath id="d">
   <path d="m194.61 205h37.059v-27.341h-37.059z"/>
  </clipPath>
  <clipPath id="b">
   <path d="m243.35 229.79h37.059v-23.938h-37.059z"/>
  </clipPath>
  <clipPath id="a">
   <path d="m288.91 279.62h7.497v-12.718h-7.497z"/>
  </clipPath>
  <clipPath id="t">
   <path d="m316.96 296.1h7.885v-24.624h-7.885z"/>
  </clipPath>
  <clipPath id="r">
   <path d="m0 500h500v-500h-500z"/>
  </clipPath>
  <clipPath id="q">
   <path d="m355.59 315.6h11.087v-6.817h-11.087z"/>
  </clipPath>
  <clipPath id="p">
   <path d="m356.09 317.43h8.967v-6.962h-8.967z"/>
  </clipPath>
 </defs>
 <g transform="matrix(1.3333 0 0 -1.3333 0 666.67)">
  <g fill="#1f2937">
   <g clip-path="url(#n)" fill="#1f2937">
    <g transform="translate(413.53 245.69)" fill="#1f2937">
     <path d="m0 0c90.421-52.204 90.42-136.84-.001-189.05-90.421-52.204-237.02-52.204-327.44 0-90.421 52.204-90.42 136.84.001 189.05 90.421 52.204 237.02 52.204 327.44 0" fill="#1f2937"/>
    </g>
   </g>
  </g>
  <g clip-path="url(#h)">
   <g transform="translate(330.98 233.4)">
    <path d="m0 0-47.068 27.231c-2.391 1.381-6.269 1.381-8.661 0l-239.09-138.04c-2.392-1.381-2.392-3.62 0-5l47.066-27.232c2.391-1.381 6.269-1.381 8.66 0l89.598 51.729 13.773-8.005c7.292-4.211 19.117-4.212 26.411-.004l41.057 23.531c7.294 4.209 7.295 11.035.002 15.245l-13.763 8.002 82.011 47.54c2.392 1.381 2.392 3.619 0 5" fill="#e0e0e0"/>
   </g>
   <g transform="translate(442.58 149.98)">
    <path d="m0 0c18.023-10.406 18.022-27.277 0-37.683-18.023-10.405-47.245-10.405-65.268 0-18.023 10.406-18.023 27.277 0 37.683 18.024 10.405 47.245 10.405 65.268 0" fill="#e0e0e0"/>
   </g>
  </g>
  <g clip-path="url(#c)">
   <g transform="translate(221.68 138.05)">
    <path d="m0 0 35.374 20.453c3.647 2.106 5.47 4.864 5.47 7.623.001 2.76.015 4.921.015 4.921l-33.286 18.893c-1.945 1.123-3.521 3.854-3.521 6.099v43.614l-61.786-35.704-.003-43.613c0-2.245 1.577-4.976 3.522-6.099l27.805-16.188c7.293-4.21 19.117-4.209 26.41.001" fill="#37474f"/>
   </g>
   <g transform="translate(178.78 152.62)">
    <path d="m0 0v-4.899l-11.324 6.525c-1.931 1.119-3.517 3.843-3.517 6.1v43.608l11.771 6.791c.244-2.989.508-6.079.752-9.088l-8.254-4.778v-34.074c0-2.256 1.566-4.98 3.518-6.099z" fill="#263238"/>
   </g>
   <g transform="translate(168.21 162.79)">
    <path d="m0 0c0-2.246 1.577-4.977 3.521-6.1l23.54-13.723c7.292-4.211 19.117-4.212 26.411-.003l35.392 20.452c7.294 4.208 7.295 11.034.002 15.245l-23.556 13.734c-1.945 1.124-3.521 3.854-3.521 6.1l-.001 34.077-61.788-35.702z" fill="#455a64"/>
   </g>
   <g clip-path="url(#s)" opacity=".14999">
    <g transform="translate(240.69 188.25)">
     <path d="m0 0v.005l-7.172 4.141c-1.945 1.123-3.521 3.854-3.521 6.099v34.078l-61.789-35.703v-34.079c0-2.247 1.577-4.977 3.522-6.1l7.048-4.069z"/>
    </g>
   </g>
   <g transform="translate(262.53 171.05)">
    <path d="m0 0v-4.92c0-2.765-1.83-5.509-5.469-7.623l-35.38-20.443c-3.497-2.033-8.03-3.049-12.605-3.131v4.9c4.575.061 9.108 1.118 12.605 3.131l35.38 20.462c3.639 2.095 5.469 4.859 5.469 7.624" fill="#37474f"/>
   </g>
   <g transform="translate(68.999 115.74)">
    <path d="m0 0c2.28-1.316 6.1-1.246 8.531.158 30.376 17.537 208.58 120.42 238.95 137.95 2.432 1.404 4.401 4.816 4.401 7.623v209.15c0 2.807-1.849 6.15-4.129 7.467-2.28 1.316-6.1 1.246-8.53-.158l-238.95-137.95c-2.43-1.404-4.401-4.817-4.401-7.624l-.003-209.15c0-2.806 1.849-6.15 4.129-7.466" fill="#455a64"/>
   </g>
   <g transform="translate(77.531 115.91)">
    <path d="m0 0 238.95 137.95c2.432 1.403 4.403 4.817 4.403 7.624v209.15c0 2.807-1.971 3.944-4.403 2.541l-238.94-137.96c-2.431-1.403-4.402-4.816-4.402-7.624l-.003-209.15c0-2.808 1.971-3.945 4.402-2.542" fill="#37474f"/>
   </g>
   <g transform="translate(81.386 146.08)">
    <path d="m0 0 .002 178.78c0 1.684 1.182 3.732 2.641 4.574l225.95 130.45c1.459.842 2.641.16 2.641-1.525l.008-178.78c0-1.684-1.182-3.732-2.641-4.574l-225.96-130.45c-1.459-.842-2.641-.16-2.641 1.525" fill="#27debf"/>
   </g>
   <g clip-path="url(#o)" opacity=".7">
    <g transform="translate(81.386 146.08)">
     <path d="m0 0 .002 178.78c0 1.684 1.182 3.732 2.641 4.574l225.95 130.45c1.459.842 2.641.16 2.641-1.525l.008-178.78c0-1.684-1.182-3.732-2.641-4.574l-225.96-130.45c-1.459-.842-2.641-.16-2.641 1.525" fill="#fff"/>
    </g>
   </g>
   <g transform="translate(200.24 204.02)">
    <path d="m0 0c-.477 0-1.02-.168-1.593-.499-2.139-1.235-3.88-4.25-3.88-6.72 0-1.088.341-1.883.96-2.24.617-.356 1.478-.254 2.421.289 2.139 1.235 3.88 4.25 3.88 6.72 0 1.088-.342 1.884-.96 2.241-.243.14-.522.209-.828.209m-3.688-10.669c-.48-.001-.927.114-1.325.344-.942.543-1.46 1.646-1.46 3.106 0 2.836 1.924 6.168 4.38 7.586 1.266.731 2.481.831 3.42.29.942-.543 1.46-1.647 1.461-3.107 0-2.836-1.924-6.168-4.38-7.586-.73-.421-1.443-.633-2.096-.633" fill="#27debf"/>
   </g>
  </g>
  <g clip-path="url(#m)">
   <g transform="translate(351.87 426.24)">
    <path d="m0 0-232.71-134.2.001-171.51c-.001-2.283 2.471-3.72 4.448-2.579l4.148 2.395 219.77 126.72c2.39 1.38 4.339 4.737 4.339 7.511z" fill="#f0f0f0"/>
    <path d="m0 0-232.71-134.2.001-171.51c-.001-1.733 1.424-2.978 2.976-2.978.492 0 .996.125 1.472.399l4.148 2.395 219.77 126.72c2.39 1.38 4.339 4.737 4.339 7.511zm-1-1.731v-169.93c0-2.4-1.758-5.444-3.838-6.645l-219.78-126.72-4.148-2.394c-.305-.177-.633-.266-.972-.266-.505 0-1.007.204-1.378.561-.386.37-.598.873-.598 1.417l-.001 170.94 230.71 133.04" fill="#e0e0e0"/>
   </g>
   <g clip-path="url(#l)" opacity=".8">
    <g transform="translate(346.35 429.42)">
     <path d="m0 0-232.72-134.19 5.535-3.196 232.71 134.2z" fill="#455a64"/>
    </g>
   </g>
   <g transform="translate(120.72 117.91)">
    <path d="m0 0s-1.558.763-1.558 2.619l-.001 166.57v4.939l-5.534 3.196-.007-170.57c0-.21.014-.421.042-.633.198-1.405 1.027-2.656 2.264-3.359l4.569-2.644z" fill="#ebebeb"/>
   </g>
   <g transform="translate(113.62 295.16)">
    <path d="m0 0v11.572c0 1.381.966 3.064 2.158 3.761l228.41 131.67c1.192.696 3.128.701 4.324.011l1.189-.687c1.195-.69 2.165-2.369 2.165-3.75v-11.591l-232.71-134.18z" fill="#27debf"/>
   </g>
   <g clip-path="url(#k)" opacity=".3">
    <g transform="translate(113.62 295.16)">
     <path d="m0 0v11.572c0 1.381.966 3.064 2.158 3.761l228.41 131.67c1.192.696 3.128.701 4.324.011l1.189-.687c1.195-.69 2.165-2.369 2.165-3.75v-11.591l-232.71-134.18z"/>
    </g>
   </g>
   <g transform="translate(119.16 303.54)">
    <path d="m0 0c0 1.381.966 3.065 2.159 3.761l228.39 131.68c1.192.697 2.158.142 2.158-1.238v-11.592l-232.71-134.18z" fill="#27debf"/>
   </g>
   <g clip-path="url(#j)" opacity=".39999">
    <g transform="translate(119.16 303.54)">
     <path d="m0 0c0 1.381.966 3.065 2.159 3.761l228.39 131.68c1.192.697 2.158.142 2.158-1.238v-11.592l-232.71-134.18z"/>
    </g>
   </g>
   <g transform="translate(119.79 305.68)">
    <path d="m0 0c-.39-.68-.63-1.45-.63-2.14v-11.57l-5.53 3.19v11.58c0 .69.24 1.45.63 2.13z" fill="#27debf"/>
   </g>
   <g clip-path="url(#i)" opacity=".5">
    <g transform="translate(119.79 305.68)">
     <path d="m0 0c-.39-.68-.63-1.45-.63-2.14v-11.57l-5.53 3.19v11.58c0 .69.24 1.45.63 2.13z"/>
    </g>
   </g>
   <g transform="translate(341.71 426.67)">
    <path d="m0 0c0-1.295.909-1.82 2.031-1.172 1.122.647 2.031 2.222 2.031 3.517 0 1.296-.909 1.821-2.031 1.173s-2.031-2.223-2.031-3.518" fill="#fafafa"/>
   </g>
   <g transform="translate(333.59 421.98)">
    <path d="m0 0c0-1.295.909-1.82 2.031-1.172 1.122.647 2.031 2.222 2.031 3.517 0 1.296-.909 1.821-2.031 1.173s-2.031-2.223-2.031-3.518" fill="#fafafa"/>
   </g>
   <g transform="translate(325.46 417.29)">
    <path d="m0 0c0-1.295.909-1.82 2.031-1.172 1.121.647 2.031 2.222 2.031 3.517 0 1.296-.91 1.821-2.031 1.173-1.122-.648-2.031-2.223-2.031-3.518" fill="#fafafa"/>
   </g>
   <g transform="translate(119.16 291.96)">
    <path d="m0 0 .001-171.44c-.001-2.282 2.471-3.719 4.448-2.578l4.148 2.395 50.855 29.322v176.58l-59.452-34.28z" fill="#fafafa"/>
   </g>
   <g transform="translate(182.67 323.35)">
    <path d="m0 0v-166.51l164.32 94.868-.001 166.51z" fill="#fafafa"/>
   </g>
   <g transform="translate(165 306.13)">
    <path d="m0 0-37.926-21.915c-.702-.405-1.271-1.391-1.271-2.201l-.001-3.948c0-.811.569-1.139 1.271-.734l37.926 21.916c.702.405 1.271 1.39 1.271 2.201l.001 3.948c0 .81-.569 1.138-1.271.733" fill="#27debf"/>
   </g>
   <g clip-path="url(#g)" opacity=".8">
    <g transform="translate(165 306.13)">
     <path d="m0 0-37.926-21.915c-.702-.405-1.271-1.391-1.271-2.201l-.001-3.948c0-.811.569-1.139 1.271-.734l37.926 21.916c.702.405 1.271 1.39 1.271 2.201l.001 3.948c0 .81-.569 1.138-1.271.733" fill="#fafafa"/>
    </g>
   </g>
   <g transform="translate(170.49 304.55)">
    <path d="m0 0c-.193-.112-.357-.132-.48-.061-.183.106-.396.472-.396 1.157 0 1.144.604 2.458 1.316 2.87.119.069.224.102.318.102.059 0 .115-.014.163-.042.182-.106.395-.471.395-1.157 0-1.143-.603-2.458-1.316-2.869m2.959.007-1.118 1.076c.221.565.356 1.185.356 1.786 0 .913-.305 1.613-.836 1.919-.403.233-.89.213-1.361-.059-.985-.569-1.756-2.165-1.756-3.633 0-.913.305-1.612.836-1.919.185-.108.388-.161.599-.161.248 0 .507.074.761.221.372.214.712.575.993 1.018l.916-.881c.085-.083.195-.124.305-.124.116 0 .231.045.318.135.168.175.162.454-.013.622" fill="#455a64"/>
   </g>
   <g transform="translate(126.73 265.74)">
    <path d="m0 0-.851-.491c-.05-.029-.09.002-.09.069v2.303c0 .066.04.144.09.173l.851.491c.05.029.091-.002.091-.068v-2.304c0-.066-.041-.144-.091-.173" fill="#455a64"/>
   </g>
   <g transform="translate(128 266.48)">
    <path d="m0 0-.851-.491c-.05-.029-.09.002-.09.069v2.302c0 .067.04.145.09.174l.851.491c.05.029.091-.002.091-.069v-2.303c0-.067-.041-.144-.091-.173" fill="#455a64"/>
   </g>
   <g transform="translate(129.28 267.21)">
    <path d="m0 0-.851-.491c-.05-.029-.09.002-.09.069v2.303c0 .066.04.144.09.173l.851.491c.05.029.091-.002.091-.068v-2.304c0-.066-.041-.144-.091-.173" fill="#455a64"/>
   </g>
   <g transform="translate(126.73 262.77)">
    <path d="m0 0-.851-.491c-.05-.029-.09.002-.09.069v2.302c0 .067.04.145.09.174l.851.491c.05.029.091-.002.091-.068v-2.304c0-.067-.041-.144-.091-.173" fill="#455a64"/>
   </g>
   <g transform="translate(128 263.51)">
    <path d="m0 0-.851-.491c-.05-.029-.09.002-.09.069v2.303c0 .067.04.144.09.173l.851.491c.05.029.091-.002.091-.068v-2.303c0-.067-.041-.145-.091-.174" fill="#455a64"/>
   </g>
   <g transform="translate(129.28 264.25)">
    <path d="m0 0-.851-.491c-.05-.029-.09.002-.09.068v2.303c0 .067.04.145.09.174l.851.491c.05.029.091-.002.091-.068v-2.304c0-.067-.041-.144-.091-.173" fill="#455a64"/>
   </g>
   <g transform="translate(126.86 254.93)">
    <path d="m0 0-1.047.638c-.04.025-.04.117 0 .188l1.047 1.847c.051.089.124.076.124-.023v-2.484c0-.099-.073-.197-.124-.166" fill="#455a64"/>
   </g>
   <g transform="translate(126.42 256.34)">
    <path d="m0 0 1.379.796v-.655l-1.379-.796c-.117-.068-.213.025-.213.205s.096.383.213.45" fill="#455a64"/>
   </g>
   <g transform="translate(128.06 257.28)">
    <path d="m0 0 .47.271v-.655l-.47-.271z" fill="#455a64"/>
   </g>
   <g transform="translate(129.8 257.96)">
    <path d="m0 0v-2.411c0-.184-.096-.383-.212-.451-.118-.067-.213.022-.213.205v2.083l-.583-.336v.655l.796.46c.116.067.212-.025.212-.205" fill="#455a64"/>
   </g>
   <g transform="translate(127.27 249.52)">
    <path d="m0 0c-.977-.672-1.64-2.528-1.452-3.899.173-1.256.918-1.208.998-1.79.009-.063.05-.086.095-.06l.932.529c.046.026.087.096.096.171.098.767 1.049 1.695 1.056 3.564.006 1.434-.779 2.135-1.725 1.485" fill="#455a64"/>
   </g>
   <g transform="translate(127.83 242.8)">
    <path d="m0 0-.9-.52c-.061-.035-.112.002-.112.084v.829c0 .082.051.178.112.213l.9.52c.062.036.112-.002.112-.084v-.829c0-.082-.05-.177-.112-.213" fill="#455a64"/>
   </g>
   <g transform="translate(127.81 263.82)">
    <path d="m0 0c-.834-.482-1.513.171-1.513 1.456 0 1.284.679 2.721 1.513 3.203.834.481 1.513-.172 1.513-1.456 0-1.285-.679-2.722-1.513-3.203m-.326 5.155c-.829-.682-1.496-2.097-1.631-3.451-.078-.788.02-1.431.238-1.887l-.303-1.573c-.025-.13.046-.198.121-.117l.906.989c.379-.121.835-.013 1.32.387.83.685 1.501 2.101 1.633 3.456.214 2.202-.934 3.306-2.284 2.196" fill="#455a64"/>
   </g>
   <g transform="translate(127.81 233.47)">
    <path d="m0 0c-.834-.481-1.513.171-1.513 1.456 0 1.284.679 2.721 1.513 3.203s1.513-.172 1.513-1.456c0-1.285-.679-2.721-1.513-3.203m-.326 5.155c-.829-.681-1.496-2.097-1.631-3.451-.078-.788.02-1.431.238-1.887l-.303-1.573c-.025-.13.046-.198.121-.117l.906.989c.379-.12.835-.013 1.32.387.83.685 1.501 2.101 1.633 3.457.214 2.201-.934 3.305-2.284 2.195" fill="#455a64"/>
   </g>
   <g transform="translate(128.77 227.51)">
    <path d="m0 0c0-.679-.357-1.436-.798-1.69-.441-.255-.799.089-.799.768s.358 1.436.799 1.691c.441.254.798-.09.798-.769" fill="#455a64"/>
   </g>
   <g transform="translate(130.14 227.27)">
    <path d="m0 0c0-.452-.238-.957-.532-1.126s-.531.06-.531.512.237.956.531 1.126c.294.169.532-.06.532-.512" fill="#455a64"/>
   </g>
   <g transform="translate(128.91 222.66)">
    <path d="m0 0-1.885-1.088v2.386c0 .502.305 1.086.682 1.304l.52.3c.377.218.683-.013.683-.516z" fill="#455a64"/>
   </g>
   <g transform="translate(129.69 225.86)">
    <path d="m0 0-.519-.3v-2.75l.979.565v2.137c0 .339-.206.494-.46.348" fill="#455a64"/>
   </g>
   <g transform="translate(125.8 224.76)">
    <path d="m0 0c0-.452.238-.681.532-.512.294.17.531.674.531 1.126s-.237.681-.531.512-.532-.674-.532-1.126" fill="#455a64"/>
   </g>
   <g transform="translate(126.25 223.88)">
    <path d="m0 0 .519.299v-2.75l-.979-.565v2.137c0 .338.206.732.46.879" fill="#455a64"/>
   </g>
   <g transform="translate(135.01 229.33)">
    <path d="m0 0 22.207 12.821c.598.346 1.083.1 1.083-.548s-.485-1.452-1.083-1.797l-22.207-12.822c-.598-.345-1.083-.1-1.083.548s.485 1.453 1.083 1.798" fill="#e0e0e0"/>
   </g>
   <g transform="translate(139.07 220.79)">
    <path d="m0 0 22.207 12.821c.598.346 1.083.1 1.083-.548 0-.647-.485-1.452-1.082-1.797l-22.208-12.821c-.598-.345-1.083-.1-1.083.547 0 .648.485 1.453 1.083 1.798" fill="#455a64"/>
   </g>
   <g transform="translate(139.07 213.73)">
    <path d="m0 0 22.207 12.821c.598.346 1.083.1 1.083-.548 0-.647-.485-1.452-1.082-1.797l-22.208-12.822c-.598-.344-1.083-.099-1.083.548 0 .648.485 1.453 1.083 1.798" fill="#e0e0e0"/>
   </g>
   <g transform="translate(139.07 206.67)">
    <path d="m0 0 22.207 12.821c.598.345 1.083.1 1.083-.548s-.485-1.452-1.082-1.797l-22.208-12.822c-.598-.345-1.083-.1-1.083.548s.485 1.453 1.083 1.798" fill="#e0e0e0"/>
   </g>
   <g transform="translate(143.39 202.18)">
    <path d="m0 0 22.207 12.821c.598.346 1.083.1 1.083-.548s-.485-1.452-1.082-1.797l-22.208-12.822c-.598-.345-1.083-.1-1.083.548s.485 1.453 1.083 1.798" fill="#e0e0e0"/>
   </g>
   <g transform="translate(138.2 196.11)">
    <path d="m0 0 1.803 3.182c.069.121.069.281 0 .323l-1.803 1.099c-.087.054-.214-.115-.214-.284v-4.282c0-.169.127-.192.214-.038" fill="#455a64"/>
   </g>
   <g transform="translate(143.39 195.15)">
    <path d="m0 0 22.207 12.821c.598.346 1.083.1 1.083-.548 0-.647-.485-1.452-1.082-1.797l-22.208-12.822c-.598-.345-1.083-.099-1.083.548 0 .648.485 1.453 1.083 1.798" fill="#e0e0e0"/>
   </g>
   <g transform="translate(138.2 189.07)">
    <path d="m0 0 1.803 3.182c.069.121.069.281 0 .323l-1.803 1.099c-.087.054-.214-.115-.214-.284v-4.282c0-.169.127-.192.214-.038" fill="#455a64"/>
   </g>
   <g transform="translate(143.39 188.11)">
    <path d="m0 0 22.207 12.821c.598.346 1.083.1 1.083-.548 0-.647-.485-1.452-1.082-1.797l-22.208-12.821c-.598-.345-1.083-.1-1.083.547 0 .648.485 1.453 1.083 1.798" fill="#e0e0e0"/>
   </g>
   <g transform="translate(138.2 182.03)">
    <path d="m0 0 1.803 3.182c.069.121.069.281 0 .323l-1.803 1.1c-.087.053-.214-.116-.214-.285v-4.281c0-.17.127-.193.214-.039" fill="#455a64"/>
   </g>
   <g transform="translate(143.39 181.07)">
    <path d="m0 0 22.207 12.821c.598.346 1.083.1 1.083-.547 0-.648-.485-1.453-1.082-1.798l-22.208-12.821c-.598-.345-1.083-.1-1.083.548 0 .647.485 1.452 1.083 1.797" fill="#e0e0e0"/>
   </g>
   <g transform="translate(138.2 175)">
    <path d="m0 0 1.803 3.182c.069.122.069.281 0 .323l-1.803 1.1c-.087.053-.214-.116-.214-.285v-4.281c0-.17.127-.193.214-.039" fill="#455a64"/>
   </g>
   <g transform="translate(143.39 174.04)">
    <path d="m0 0 22.207 12.821c.598.346 1.083.1 1.083-.548 0-.647-.485-1.452-1.082-1.797l-22.208-12.822c-.598-.345-1.083-.099-1.083.548 0 .648.485 1.453 1.083 1.798" fill="#e0e0e0"/>
   </g>
   <g transform="translate(138.2 167.96)">
    <path d="m0 0 1.803 3.182c.069.121.069.281 0 .323l-1.803 1.099c-.087.054-.214-.115-.214-.284v-4.282c0-.169.127-.192.214-.038" fill="#455a64"/>
   </g>
   <g transform="translate(143.39 167)">
    <path d="m0 0 22.207 12.821c.598.346 1.083.1 1.083-.548 0-.647-.485-1.452-1.082-1.797l-22.208-12.821c-.598-.345-1.083-.1-1.083.547 0 .648.485 1.453 1.083 1.798" fill="#e0e0e0"/>
   </g>
   <g transform="translate(138.2 160.92)">
    <path d="m0 0 1.803 3.182c.069.121.069.281 0 .323l-1.803 1.099c-.087.054-.214-.115-.214-.284v-4.282c0-.169.127-.192.214-.038" fill="#455a64"/>
   </g>
   <g transform="translate(143.39 159.96)">
    <path d="m0 0 22.207 12.821c.598.346 1.083.1 1.083-.547 0-.648-.485-1.453-1.082-1.798l-22.208-12.821c-.598-.345-1.083-.1-1.083.548 0 .647.485 1.452 1.083 1.797" fill="#e0e0e0"/>
   </g>
   <g transform="translate(138.2 153.89)">
    <path d="m0 0 1.803 3.182c.069.122.069.281 0 .323l-1.803 1.1c-.087.053-.214-.116-.214-.285v-4.281c0-.17.127-.193.214-.039" fill="#455a64"/>
   </g>
   <g transform="translate(143.39 152.93)">
    <path d="m0 0 22.207 12.821c.598.346 1.083.1 1.083-.547 0-.648-.485-1.453-1.082-1.798l-22.208-12.821c-.598-.345-1.083-.1-1.083.548 0 .647.485 1.452 1.083 1.797" fill="#e0e0e0"/>
   </g>
   <g transform="translate(138.2 146.85)">
    <path d="m0 0 1.803 3.182c.069.122.069.281 0 .323l-1.803 1.1c-.087.053-.214-.115-.214-.285v-4.281c0-.17.127-.193.214-.039" fill="#455a64"/>
   </g>
   <g transform="translate(187.82 300.52)">
    <path d="m0 0 72.99 42.141c.598.345 1.082 1.185 1.082 1.875v18.607c0 .69-.484.97-1.082.625l-72.99-42.133c-.598-.345-1.083-1.184-1.083-1.875v-18.615c0-.69.485-.97 1.083-.625" fill="#f0f0f0"/>
   </g>
   <g transform="translate(194.18 313.65)">
    <path d="m0 0c0 .009.002.023.007.044l.479 1.999-.662-.382c-.015-.009-.03-.009-.042.004-.011.011-.017.029-.017.054v.362c0 .025.006.05.017.075.012.026.027.043.042.052l1.061.613c.016.009.03.009.043-.003.011-.012.017-.03.017-.055v-.318c0-.036-.011-.101-.036-.194l-.48-2.003c-.006-.025-.015-.048-.025-.071-.008-.022-.023-.039-.04-.049l-.311-.18c-.015-.008-.028-.008-.037.003-.011.009-.016.026-.016.049" fill="#455a64"/>
   </g>
   <g transform="translate(196.19 315.63)">
    <path d="m0 0c.006.197.006.388 0 .574-.003.055-.009.104-.017.147-.008.044-.021.078-.039.103-.017.025-.041.039-.071.043-.029.003-.066-.009-.11-.034-.045-.025-.082-.057-.112-.095-.03-.037-.053-.079-.071-.125-.017-.045-.03-.094-.04-.147-.008-.053-.014-.108-.015-.167-.007-.192-.007-.383 0-.572.001-.057.006-.107.014-.149.008-.044.022-.078.04-.103.019-.024.042-.038.072-.042s.067.008.112.034c.044.025.081.057.11.095.03.037.054.079.072.125.019.046.033.096.04.148.008.052.014.107.015.165m-.237 1.38c.11.064.206.094.286.09s.146-.033.198-.087c.053-.054.092-.13.118-.227.027-.098.04-.207.045-.327.003-.098.005-.198.005-.306 0-.107-.002-.208-.005-.303-.005-.126-.018-.253-.045-.38-.026-.128-.065-.249-.118-.363-.052-.115-.118-.22-.198-.316s-.176-.177-.286-.241c-.112-.064-.206-.093-.287-.09-.08.003-.146.032-.199.086-.052.055-.091.131-.117.229-.025.097-.041.207-.046.326-.003.093-.005.191-.005.299 0 .107.002.209.005.31.005.126.021.252.046.38.026.127.065.248.117.363.053.114.119.221.199.317.081.096.175.176.287.24" fill="#455a64"/>
   </g>
   <g transform="translate(198.08 316.3)">
    <path d="m0 0c.003-.058.012-.097.024-.12.012-.022.035-.024.068-.005.032.019.054.046.067.083.012.038.021.086.024.147.004.078.004.153 0 .226-.003.057-.012.097-.024.119-.013.023-.035.025-.067.007-.033-.02-.056-.049-.068-.084-.012-.037-.021-.087-.024-.147-.004-.078-.004-.153 0-.226m.44.496c.004-.088.004-.175 0-.259-.003-.07-.011-.138-.026-.205-.014-.066-.036-.13-.064-.191-.029-.061-.065-.116-.108-.166s-.093-.091-.15-.124c-.059-.034-.109-.051-.152-.051-.043.001-.079.015-.106.044-.028.027-.049.067-.064.116-.015.05-.024.107-.027.174-.003.044-.005.086-.005.125 0 .041.002.085.005.135.003.07.012.139.027.205.015.067.036.13.064.191.027.06.063.116.106.165.043.05.093.092.152.126.057.032.107.049.15.048.043.001.079-.014.107-.042.028-.029.049-.066.064-.117.015-.049.024-.108.027-.174m-1.469.106c.003-.058.01-.098.023-.12.013-.024.035-.024.068-.006.033.019.054.046.067.084.013.036.02.086.024.147.004.077.004.152 0 .225-.004.058-.011.097-.024.12-.013.022-.034.024-.067.005s-.055-.046-.068-.083-.02-.086-.023-.147c-.005-.078-.005-.153 0-.225m.994 1.218c.01.027.021.05.032.067.011.018.027.033.047.045l.183.105c.016.009.029.01.039.005.009-.008.014-.021.014-.042 0-.005-.001-.012-.003-.019-.001-.008-.003-.016-.006-.024l-1.096-2.854c-.01-.026-.022-.049-.032-.066-.011-.017-.027-.033-.048-.045l-.182-.105c-.017-.009-.029-.011-.039-.004-.01.008-.015.021-.015.042 0 .004.001.01.003.017.001.008.003.016.007.025zm-.555-.722c.004-.09.004-.175 0-.26-.003-.069-.011-.138-.025-.204-.015-.067-.035-.13-.065-.192-.028-.06-.065-.116-.107-.166-.043-.049-.094-.091-.151-.124-.058-.033-.109-.05-.151-.05-.043.001-.079.015-.106.043-.029.029-.05.067-.065.117-.015.049-.023.108-.027.174-.002.043-.004.085-.004.126 0 .04.002.084.004.133.004.071.012.138.027.205.015.066.036.131.065.191.027.061.063.116.106.166.042.05.093.091.151.124.057.034.108.051.151.051.042-.002.078-.015.105-.044.03-.027.05-.067.066-.116.014-.05.023-.107.026-.174" fill="#455a64"/>
   </g>
   <g transform="translate(194.17 319.38)">
    <path d="m0 0-.733 1.13c-.804-1.366-1.418-2.999-1.732-4.668l1.185.092c.231 1.233.686 2.437 1.28 3.446" fill="#455a64"/>
   </g>
   <g transform="translate(196.24 321.62)">
    <path d="m0 0v1.915c-1.047-.604-2.014-1.684-2.8-3.019l.733-1.129c.581.986 1.294 1.786 2.067 2.233" fill="#455a64"/>
   </g>
   <g transform="translate(192.72 314.16)">
    <path d="m0 0c0 .584.062 1.183.173 1.774l-1.184-.091c-.151-.801-.233-1.61-.233-2.402 0-.791.082-1.505.233-2.132l1.184 1.276c-.111.464-.173.99-.173 1.575" fill="#455a64"/>
   </g>
   <g transform="translate(200.77 321.08)">
    <path d="m0 0c-.313 1.307-.927 2.231-1.731 2.667-.787.428-1.754.39-2.801-.214v-1.915c.774.446 1.487.469 2.068.153.594-.322 1.048-1.002 1.28-1.967.111-.464.173-.99.173-1.575s-.062-1.183-.173-1.774c-.232-1.233-.686-2.437-1.28-3.447-.581-.986-1.294-1.786-2.068-2.233s-1.487-.47-2.068-.154c-.594.323-1.048 1.002-1.28 1.967l-1.184-1.276c.314-1.306.927-2.231 1.731-2.668.787-.426 1.754-.389 2.801.215 1.047.605 2.014 1.684 2.801 3.019.804 1.366 1.418 2.999 1.731 4.668.151.801.233 1.61.233 2.402 0 .791-.082 1.505-.233 2.132" fill="#27debf"/>
   </g>
   <g transform="translate(208.13 326.32)">
    <path d="m0 0 22.207 12.821c.598.346 1.083.1 1.083-.548 0-.647-.485-1.452-1.083-1.797l-22.207-12.822c-.598-.344-1.083-.099-1.083.548 0 .648.485 1.453 1.083 1.798" fill="#455a64"/>
   </g>
   <g transform="translate(208.13 321.59)">
    <path d="m0 0 38.456 22.196c.597.345 1.082.1 1.082-.548s-.485-1.452-1.082-1.797l-38.456-22.196c-.598-.345-1.083-.1-1.083.547 0 .648.485 1.453 1.083 1.798" fill="#e0e0e0"/>
   </g>
   <g transform="translate(267.02 346.25)">
    <path d="m0 0 72.99 42.141c.598.345 1.082 1.184 1.082 1.875v18.607c0 .69-.484.97-1.082.625l-72.99-42.133c-.598-.345-1.082-1.185-1.082-1.875v-18.615c0-.69.484-.97 1.082-.625" fill="#f0f0f0"/>
   </g>
   <g transform="translate(274.63 361.6)">
    <path d="m0 0c0 .045-.007.083-.02.113-.012.03-.031.052-.052.065-.024.013-.049.018-.077.017-.029-.002-.059-.011-.09-.029-.032-.019-.061-.042-.09-.075-.029-.032-.055-.067-.076-.106-.023-.038-.04-.08-.054-.126s-.02-.091-.02-.136c0-.046.006-.083.02-.114.014-.029.031-.05.054-.064.021-.014.047-.02.076-.017.029.002.058.011.09.029.031.018.061.043.09.074.028.032.053.066.077.106.021.039.04.081.052.126.013.046.02.091.02.137m-.89-.514c0 .132.018.261.055.388.036.127.084.244.146.352.06.108.129.204.209.288.078.085.158.15.241.198s.163.075.242.081c.078.008.147-.008.208-.046.06-.039.109-.1.145-.185.037-.084.055-.193.055-.325 0-.066-.005-.13-.015-.191-.009-.062-.022-.121-.038-.179-.014-.058-.032-.115-.051-.171-.019-.054-.038-.109-.058-.161l-.421-1.142c-.008-.016-.016-.034-.024-.057-.01-.022-.025-.039-.045-.051l-.354-.204c-.012-.007-.023-.005-.031.004-.009.01-.013.026-.013.046 0 .012.001.021.004.029.002.008.004.016.008.021l.284.78c-.073-.027-.142-.036-.208-.03-.066.007-.124.032-.175.074-.049.043-.089.103-.119.182-.029.079-.045.178-.045.299" fill="#455a64"/>
   </g>
   <g transform="translate(276.11 361.79)">
    <path d="m0 0c.007.197.007.389 0 .574-.002.056-.008.104-.016.148-.008.043-.021.077-.039.102-.017.025-.041.04-.071.043-.029.003-.066-.008-.11-.034-.045-.026-.082-.057-.112-.094-.03-.038-.053-.08-.071-.125-.018-.046-.03-.095-.04-.149-.008-.052-.014-.107-.015-.166-.007-.192-.007-.383 0-.572.001-.058.006-.107.014-.149.008-.044.022-.078.04-.102.019-.025.042-.04.072-.043.03-.004.067.008.112.034.044.026.081.056.11.094.03.038.054.08.072.126.019.045.033.095.04.148.008.052.014.107.014.165m-.236 1.38c.11.064.206.094.286.09s.145-.033.198-.088c.053-.053.092-.129.118-.226.026-.099.04-.207.045-.328.003-.097.005-.197.005-.305 0-.107-.002-.208-.005-.303-.005-.126-.019-.252-.045-.38s-.065-.249-.118-.363c-.053-.115-.118-.22-.198-.316s-.176-.177-.286-.241c-.112-.064-.206-.093-.287-.09-.08.004-.146.032-.199.086-.052.055-.091.131-.118.229-.025.097-.04.207-.045.327-.003.092-.005.19-.005.298 0 .107.002.21.005.31.005.126.02.252.045.38.027.127.066.248.118.363.053.114.119.221.199.317.081.096.175.175.287.24" fill="#455a64"/>
   </g>
   <g transform="translate(278 362.46)">
    <path d="m0 0c.003-.058.012-.097.024-.12s.035-.024.068-.005c.032.019.054.047.067.083.012.037.021.086.023.147.005.078.005.153 0 .226-.002.057-.011.097-.023.119-.013.023-.035.025-.067.007-.033-.02-.056-.049-.068-.084-.012-.037-.021-.087-.024-.147-.004-.078-.004-.153 0-.226m.44.497c.004-.089.004-.176 0-.261-.003-.07-.012-.137-.026-.204-.014-.066-.036-.13-.064-.191-.03-.061-.065-.116-.108-.166s-.093-.091-.15-.124c-.059-.033-.109-.051-.152-.05-.043 0-.079.014-.106.043-.028.028-.05.067-.064.116-.015.05-.024.108-.027.174-.003.044-.005.086-.005.125 0 .04.002.085.005.135.003.07.012.138.027.205.014.067.036.13.064.191.027.06.063.116.106.165.043.051.093.092.152.126.057.033.107.049.15.048.043.001.078-.014.107-.042.028-.029.049-.067.064-.117.015-.049.024-.108.027-.173m-1.469.105c.003-.058.01-.099.023-.12.013-.024.035-.025.068-.006s.054.046.067.084c.013.037.02.086.024.147.004.077.004.152 0 .225-.004.058-.011.097-.024.12-.013.022-.034.024-.067.005-.033-.018-.055-.046-.068-.083s-.02-.086-.023-.147c-.005-.078-.005-.153 0-.225m.994 1.218c.01.027.021.05.032.067.011.018.027.033.047.045l.183.105c.016.01.029.01.039.004.009-.007.014-.021.014-.041 0-.005-.001-.011-.003-.019-.001-.008-.003-.016-.006-.024l-1.096-2.854c-.01-.026-.022-.049-.032-.067-.011-.016-.028-.032-.048-.044l-.182-.105c-.017-.009-.029-.011-.039-.004-.01.008-.015.021-.015.041 0 .005.001.011.003.019.001.007.003.015.007.024zm-.555-.722c.004-.09.004-.175 0-.26-.003-.069-.011-.138-.025-.204-.015-.067-.036-.13-.065-.191-.028-.061-.065-.117-.107-.167-.043-.049-.094-.091-.151-.124-.058-.033-.109-.05-.151-.05-.043.001-.079.015-.106.043-.029.029-.05.066-.065.117-.015.049-.023.108-.027.174-.002.043-.004.085-.004.126 0 .04.002.084.004.133.004.071.012.138.027.206.015.065.036.13.065.19.027.061.063.116.106.166.042.05.093.091.151.124.057.034.108.051.151.051.042-.001.078-.015.105-.044.03-.027.05-.067.066-.116.014-.05.023-.107.026-.174" fill="#455a64"/>
   </g>
   <g transform="translate(276.1 367.74)">
    <path d="m0 0v1.916c-1.047-.605-2.015-1.685-2.801-3.02l.734-1.129c.581.986 1.294 1.786 2.067 2.233" fill="#455a64"/>
   </g>
   <g transform="translate(280.63 367.2)">
    <path d="m0 0c-.313 1.307-.928 2.231-1.731 2.667-.787.428-1.754.391-2.801-.214v-1.915c.773.446 1.486.469 2.067.153.595-.322 1.049-1.002 1.28-1.967.112-.464.174-.99.174-1.575s-.062-1.183-.174-1.774c-.231-1.232-.684-2.435-1.277-3.442-.581-.985-1.298-1.792-2.07-2.238-.774-.446-1.487-.47-2.068-.154-.594.323-1.048 1.002-1.28 1.967-.111.464-.174.991-.174 1.575 0 .585.063 1.183.174 1.775.232 1.233.686 2.437 1.28 3.446l-.733 1.13c-.804-1.366-1.418-2.998-1.731-4.667-.151-.801-.234-1.611-.234-2.402 0-.792.083-1.506.234-2.133.313-1.306.927-2.231 1.731-2.667.786-.427 1.754-.39 2.801.214 1.047.605 2.014 1.684 2.801 3.019l-.002.003.002-.003c.803 1.366 1.418 2.999 1.731 4.668.15.801.233 1.61.233 2.402 0 .791-.083 1.505-.233 2.132" fill="#27debf"/>
   </g>
   <g transform="translate(287.97 372.44)">
    <path d="m0 0 22.207 12.821c.598.346 1.082.1 1.082-.548 0-.647-.484-1.452-1.082-1.797l-22.208-12.821c-.598-.345-1.082-.1-1.082.547 0 .648.484 1.453 1.083 1.798" fill="#455a64"/>
   </g>
   <g transform="translate(287.97 367.72)">
    <path d="m0 0 38.455 22.196c.598.345 1.082.1 1.082-.548s-.484-1.452-1.082-1.797l-38.456-22.196c-.598-.345-1.082-.1-1.082.548 0 .647.484 1.452 1.083 1.797" fill="#e0e0e0"/>
   </g>
   <g transform="translate(195.25 295.41)">
    <path d="m0 0 15.577 9.02c.597.345 1.082.1 1.082-.547 0-.648-.485-1.453-1.082-1.798l-15.577-9.02c-.598-.345-1.083-.1-1.083.548 0 .647.485 1.452 1.083 1.797" fill="#455a64"/>
   </g>
   <g transform="translate(340.49 374.47)">
    <path d="m0 0c-.146 0-.31-.048-.483-.148l-123.76-71.452c-.174-.1-.338-.148-.484-.148-.355 0-.599.284-.599.773v6.881c0 .49-.243.773-.599.773-.145 0-.309-.048-.483-.148l-22.207-12.821c-.598-.345-1.083-1.185-1.083-1.875v-6.881c0-.69-.485-1.53-1.082-1.875l-1.897-1.095c-.598-.345-1.083-1.185-1.083-1.875l.001-119.45c0-.49.243-.773.599-.773.145 0 .309.048.483.148l152.19 87.868c.597.346 1.082 1.185 1.082 1.875v119.45c0 .49-.245.773-.6.773m-125.86-64.314h.005-.005m125.46 63.055v-118.97c0-.333-.294-.842-.582-1.009l-151.78-87.623-.001 118.97c0 .333.294.842.583 1.009l1.897 1.095c.902.521 1.582 1.699 1.582 2.741v6.881c0 .333.294.842.583 1.009l21.789 12.576v-6.395c0-1.164.804-1.773 1.599-1.773.329 0 .66.095.984.282l123.34 71.207m.459.265h.004-.004" fill="#e0e0e0"/>
   </g>
   <g transform="translate(197.26 286.63)">
    <path d="m0 0c-.443-.256-.833-.93-.833-1.441v-4.536c0-.171.047-.256.068-.268.021-.011.118-.01.265.076l12.069 6.959c.444.256.833.929.833 1.441v4.536c0 .171-.046.255-.067.268-.02.012-.117.009-.266-.076zm-.735-7.25c-.19 0-.37.046-.531.139-.36.208-.567.622-.567 1.134v4.536c0 .862.586 1.876 1.333 2.307l12.069 6.96c.445.256.906.283 1.266.075.361-.209.567-.622.567-1.134v-4.536c0-.863-.585-1.877-1.333-2.307l-12.069-6.96c-.247-.142-.499-.214-.735-.214" fill="#e0e0e0"/>
   </g>
   <g transform="translate(197.97 284.77)">
    <path d="m0 0 7.866 4.564c.399.23.721.067.721-.364 0-.432-.322-.969-.721-1.199l-7.866-4.564c-.398-.23-.722-.067-.722.365.001.431.324.968.722 1.198" fill="#e0e0e0"/>
   </g>
   <g transform="translate(207.67 290.08)">
    <path d="m0 0 .652-.926c.025-.035.074-.007.098.057l.652 1.679c.032.081.003.155-.048.126l-1.305-.753c-.051-.03-.08-.139-.049-.183" fill="#455a64"/>
   </g>
   <g transform="translate(194.86 235.44)">
    <path d="m0 0c.576.333 1.044.063 1.044-.603s-.468-1.475-1.044-1.808c-.577-.333-1.044-.063-1.044.603 0 .665.467 1.475 1.044 1.808" fill="#27debf"/>
   </g>
   <g transform="translate(202.98 244.82)">
    <path d="m0 0c.576.333 1.043.063 1.043-.603s-.467-1.475-1.043-1.808c-.577-.333-1.044-.063-1.044.603s.467 1.475 1.044 1.808" fill="#27debf"/>
   </g>
   <g transform="translate(211.11 249.51)">
    <path d="m0 0c.577.333 1.044.063 1.044-.603s-.467-1.475-1.044-1.808c-.576-.333-1.043-.063-1.043.603 0 .665.467 1.475 1.043 1.808" fill="#27debf"/>
   </g>
   <g transform="translate(219.23 252.14)">
    <path d="m0 0c.577.333 1.044.063 1.044-.603s-.467-1.475-1.044-1.808-1.044-.063-1.044.603.467 1.475 1.044 1.808" fill="#27debf"/>
   </g>
   <g transform="translate(227.36 260.59)">
    <path d="m0 0c.577.333 1.044.063 1.044-.603s-.467-1.475-1.044-1.808-1.044-.063-1.044.603c0 .665.467 1.475 1.044 1.808" fill="#27debf"/>
   </g>
   <g transform="translate(235.48 263.58)">
    <path d="m0 0c.577.333 1.044.063 1.044-.603 0-.665-.467-1.475-1.044-1.808-.577-.332-1.044-.063-1.044.603s.467 1.475 1.044 1.808" fill="#27debf"/>
   </g>
   <g transform="translate(243.6 272.96)">
    <path d="m0 0c.576.333 1.044.063 1.044-.603s-.467-1.475-1.044-1.808-1.044-.063-1.044.603c0 .665.467 1.475 1.044 1.808" fill="#27debf"/>
   </g>
   <g transform="translate(251.73 275.31)">
    <path d="m0 0c.576.333 1.043.063 1.043-.603s-.467-1.475-1.043-1.808c-.577-.333-1.044-.063-1.044.603s.467 1.475 1.044 1.808" fill="#27debf"/>
   </g>
   <g transform="translate(259.85 301.1)">
    <path d="m0 0c.576.333 1.043.063 1.043-.603 0-.665-.467-1.475-1.043-1.808-.577-.332-1.044-.063-1.044.603s.467 1.475 1.044 1.808" fill="#27debf"/>
   </g>
   <g transform="translate(267.98 287.03)">
    <path d="m0 0c.576.333 1.044.063 1.044-.603 0-.665-.468-1.475-1.044-1.808-.577-.332-1.044-.063-1.044.603s.467 1.475 1.044 1.808" fill="#27debf"/>
   </g>
   <g transform="translate(276.1 287.03)">
    <path d="m0 0c.576.333 1.044.063 1.044-.603 0-.665-.468-1.475-1.044-1.808-.577-.332-1.044-.063-1.044.603s.467 1.475 1.044 1.808" fill="#27debf"/>
   </g>
   <g transform="translate(284.22 287.03)">
    <path d="m0 0c.576.333 1.044.063 1.044-.603s-.468-1.475-1.044-1.808c-.577-.333-1.044-.063-1.044.603 0 .665.467 1.475 1.044 1.808" fill="#27debf"/>
   </g>
   <g transform="translate(292.35 301.1)">
    <path d="m0 0c.577.333 1.044.063 1.044-.603s-.467-1.475-1.044-1.808c-.576-.333-1.043-.063-1.043.603 0 .665.467 1.475 1.043 1.808" fill="#27debf"/>
   </g>
   <g transform="translate(300.47 303.8)">
    <path d="m0 0c.576.333 1.043.063 1.043-.603s-.467-1.475-1.043-1.808c-.577-.333-1.044-.063-1.044.603 0 .665.467 1.475 1.044 1.808" fill="#27debf"/>
   </g>
   <g transform="translate(308.62 315.18)">
    <path d="m0 0c.576.333 1.044.063 1.044-.603 0-.665-.468-1.475-1.044-1.808-.577-.332-1.044-.063-1.044.603s.467 1.475 1.044 1.808" fill="#27debf"/>
   </g>
   <g transform="translate(316.72 315.18)">
    <path d="m0 0c.576.333 1.044.063 1.044-.603 0-.665-.468-1.475-1.044-1.808-.576-.332-1.044-.063-1.044.603s.468 1.475 1.044 1.808" fill="#27debf"/>
   </g>
   <g transform="translate(324.84 315.18)">
    <path d="m0 0c.576.333 1.044.063 1.044-.603 0-.665-.468-1.475-1.044-1.808-.576-.332-1.044-.063-1.044.603s.468 1.475 1.044 1.808" fill="#27debf"/>
   </g>
   <g transform="translate(332.97 319.87)">
    <path d="m0 0c.576.333 1.044.063 1.044-.603s-.468-1.475-1.044-1.808-1.044-.063-1.044.603c0 .665.468 1.475 1.044 1.808" fill="#27debf"/>
   </g>
   <g transform="translate(194.84 233.97)">
    <path d="m0 0c-.059 0-.117.021-.164.062-.105.09-.115.248-.024.352l8.203 9.427c.017.02.039.039.063.053l8.066 4.655 8.112 2.633 8.08 8.402c.026.027.059.048.094.061l8.064 2.972 8.083 9.333c.032.037.073.063.12.077l7.995 2.307 8.084 25.669c.029.094.112.163.211.173.091.011.194-.037.244-.123l8.051-13.946 8 .011 7.96-.011 8.051 13.946c.032.053.081.093.138.113l8.047 2.669 8.077 11.31c.047.065.122.105.203.105l16.181-.001 8.067 4.657c.117.07.271.029.342-.091.069-.12.027-.273-.092-.341l-8.125-4.691c-.038-.022-.081-.034-.125-.034l-16.119.001-8.05-11.271c-.03-.043-.074-.076-.124-.092l-8.034-2.666-8.076-13.989c-.045-.077-.128-.125-.217-.125l-8.104.011-8.145-.011c-.089 0-.172.048-.217.125l-7.838 13.579-7.954-25.255c-.025-.08-.088-.142-.169-.165l-8.052-2.324-8.077-9.326c-.028-.033-.063-.057-.102-.071l-8.071-2.974-8.084-8.405c-.029-.03-.064-.052-.103-.065l-8.124-2.631-7.982-4.614-8.176-9.395c-.049-.057-.119-.086-.188-.086" fill="#27debf"/>
   </g>
   <g transform="translate(194.86 229.04)">
    <path d="m0 0c-.173 0-.341.089-.434.25-.138.239-.056.545.184.683l138.11 79.737c.238.138.545.058.683-.183.138-.239.056-.545-.183-.683l-138.11-79.737c-.079-.046-.165-.067-.25-.067" fill="#e0e0e0"/>
   </g>
   <g transform="translate(194.86 240.13)">
    <path d="m0 0c.576.333 1.044.063 1.044-.603 0-.665-.468-1.475-1.044-1.808-.577-.332-1.044-.063-1.044.603s.467 1.475 1.044 1.808" fill="#27debf"/>
   </g>
   <g transform="translate(202.98 254.2)">
    <path d="m0 0c.577.333 1.044.063 1.044-.603 0-.665-.467-1.475-1.044-1.808-.577-.332-1.044-.063-1.044.603s.467 1.475 1.044 1.808" fill="#27debf"/>
   </g>
   <g transform="translate(211.11 255.96)">
    <path d="m0 0c.576.333 1.043.063 1.043-.603s-.467-1.475-1.043-1.808c-.577-.333-1.044-.063-1.044.603 0 .665.467 1.475 1.044 1.808" fill="#27debf"/>
   </g>
   <g transform="translate(219.23 272.96)">
    <path d="m0 0c.577.333 1.044.063 1.044-.603s-.467-1.475-1.044-1.808c-.576-.333-1.044-.063-1.044.603 0 .665.467 1.475 1.044 1.808" fill="#27debf"/>
   </g>
   <g transform="translate(227.36 268.27)">
    <path d="m0 0c.577.333 1.044.063 1.044-.603s-.467-1.475-1.044-1.808-1.044-.063-1.044.603c0 .665.467 1.475 1.044 1.808" fill="#27debf"/>
   </g>
   <g transform="translate(235.48 270.62)">
    <path d="m0 0c.577.333 1.044.063 1.044-.603s-.467-1.475-1.044-1.808c-.576-.333-1.044-.063-1.044.603 0 .665.467 1.475 1.044 1.808" fill="#27debf"/>
   </g>
   <g transform="translate(243.6 277.65)">
    <path d="m0 0c.576.333 1.044.063 1.044-.603s-.467-1.475-1.044-1.808-1.044-.063-1.044.603.467 1.475 1.044 1.808" fill="#27debf"/>
   </g>
   <g transform="translate(251.73 287.03)">
    <path d="m0 0c.576.333 1.044.063 1.044-.603 0-.665-.467-1.475-1.044-1.808-.576-.332-1.043-.063-1.043.603s.467 1.475 1.043 1.808" fill="#27debf"/>
   </g>
   <g transform="translate(259.85 289.38)">
    <path d="m0 0c.576.333 1.043.063 1.043-.603s-.467-1.475-1.043-1.808c-.577-.333-1.044-.063-1.044.603s.467 1.475 1.044 1.808" fill="#27debf"/>
   </g>
   <g transform="translate(267.97 296.41)">
    <path d="m0 0c.577.333 1.044.063 1.044-.603 0-.665-.467-1.475-1.044-1.808-.576-.332-1.044-.063-1.044.603s.468 1.475 1.044 1.808" fill="#27debf"/>
   </g>
   <g transform="translate(276.1 296.41)">
    <path d="m0 0c.577.333 1.044.063 1.044-.603s-.467-1.475-1.044-1.808c-.576-.333-1.044-.063-1.044.603 0 .665.468 1.475 1.044 1.808" fill="#27debf"/>
   </g>
   <g transform="translate(284.22 315.18)">
    <path d="m0 0c.576.333 1.044.063 1.044-.603s-.468-1.475-1.044-1.808c-.577-.333-1.044-.063-1.044.603s.467 1.475 1.044 1.808" fill="#27debf"/>
   </g>
   <g transform="translate(292.35 305.86)">
    <path d="m0 0c.576.333 1.044.063 1.044-.603s-.468-1.475-1.044-1.808c-.577-.333-1.044-.063-1.044.603 0 .665.467 1.475 1.044 1.808" fill="#27debf"/>
   </g>
   <g transform="translate(300.47 315.18)">
    <path d="m0 0c.576.333 1.044.063 1.044-.603s-.468-1.475-1.044-1.808c-.577-.333-1.044-.063-1.044.603 0 .665.467 1.475 1.044 1.808" fill="#27debf"/>
   </g>
   <g transform="translate(308.59 319.87)">
    <path d="m0 0c.577.333 1.044.063 1.044-.603s-.467-1.475-1.044-1.808c-.576-.333-1.043-.063-1.043.603 0 .665.467 1.475 1.043 1.808" fill="#27debf"/>
   </g>
   <g transform="translate(316.72 319.87)">
    <path d="m0 0c.577.333 1.044.063 1.044-.603 0-.665-.467-1.475-1.043-1.807-.577-.333-1.044-.064-1.044.602s.467 1.475 1.043 1.808" fill="#27debf"/>
   </g>
   <g transform="translate(324.84 324.56)">
    <path d="m0 0c.576.333 1.044.063 1.044-.603 0-.665-.468-1.475-1.044-1.808-.576-.332-1.044-.063-1.044.603s.468 1.475 1.044 1.808" fill="#27debf"/>
   </g>
   <g transform="translate(332.97 324.56)">
    <path d="m0 0c.576.333 1.044.063 1.044-.603 0-.665-.468-1.475-1.044-1.808-.576-.332-1.044-.063-1.044.603s.468 1.475 1.044 1.808" fill="#27debf"/>
   </g>
   <g transform="translate(194.86 238.67)">
    <path d="m0 0c-.043 0-.086.011-.125.034-.12.07-.16.222-.091.341l8.182 14.105c.035.062.095.105.164.12l7.945 1.696 8.071 16.895c.03.063.084.111.151.131.068.021.14.012.199-.022l8.042-4.643 7.96 2.306 8.071 6.994 8.11 9.361c.031.037.072.063.119.077l8.073 2.33 8.082 7c.046.039.103.061.164.061h7.96l8.058 18.61c.034.08.107.135.192.148.084.015.17-.018.227-.083l7.935-9.163 7.934 9.163c.019.021.04.039.065.053l8.152 4.707c.038.022.081.033.125.033h8.057l8.038 4.641c.038.022.081.033.125.033h8.125c.138 0 .25-.112.25-.25s-.112-.25-.25-.25h-8.058l-8.038-4.64c-.038-.022-.081-.034-.125-.034h-8.056l-8.059-4.652-8.096-9.349c-.095-.109-.283-.109-.379 0l-7.863 9.08-7.966-18.396c-.04-.092-.13-.151-.229-.151h-8.032l-8.052-6.975c-.028-.024-.06-.041-.095-.051l-8.054-2.325-8.086-9.331-8.138-7.055c-.027-.023-.059-.041-.095-.051l-8.115-2.351c-.065-.017-.136-.009-.194.024l-7.9 4.561-8.006-16.762c-.034-.07-.098-.121-.174-.137l-7.958-1.699-8.126-14.009c-.046-.08-.13-.125-.216-.125" fill="#27debf"/>
   </g>
   <g clip-path="url(#f)" opacity=".3">
    <g transform="translate(194.86 240.13)">
     <path d="m0 0c.576.333 1.044.063 1.044-.603 0-.665-.468-1.475-1.044-1.808-.577-.332-1.044-.063-1.044.603s.467 1.475 1.044 1.808"/>
    </g>
    <g transform="translate(202.98 254.2)">
     <path d="m0 0c.577.333 1.044.063 1.044-.603 0-.665-.467-1.475-1.044-1.808-.577-.332-1.044-.063-1.044.603s.467 1.475 1.044 1.808"/>
    </g>
    <g transform="translate(211.11 255.96)">
     <path d="m0 0c.576.333 1.043.063 1.043-.603s-.467-1.475-1.043-1.808c-.577-.333-1.044-.063-1.044.603 0 .665.467 1.475 1.044 1.808"/>
    </g>
    <g transform="translate(219.23 272.96)">
     <path d="m0 0c.577.333 1.044.063 1.044-.603s-.467-1.475-1.044-1.808c-.576-.333-1.044-.063-1.044.603 0 .665.467 1.475 1.044 1.808"/>
    </g>
    <g transform="translate(227.36 268.27)">
     <path d="m0 0c.577.333 1.044.063 1.044-.603s-.467-1.475-1.044-1.808-1.044-.063-1.044.603c0 .665.467 1.475 1.044 1.808"/>
    </g>
    <g transform="translate(235.48 270.62)">
     <path d="m0 0c.577.333 1.044.063 1.044-.603s-.467-1.475-1.044-1.808c-.576-.333-1.044-.063-1.044.603 0 .665.467 1.475 1.044 1.808"/>
    </g>
    <g transform="translate(243.6 277.65)">
     <path d="m0 0c.576.333 1.044.063 1.044-.603s-.467-1.475-1.044-1.808-1.044-.063-1.044.603.467 1.475 1.044 1.808"/>
    </g>
    <g transform="translate(251.73 287.03)">
     <path d="m0 0c.576.333 1.044.063 1.044-.603 0-.665-.467-1.475-1.044-1.808-.576-.332-1.043-.063-1.043.603s.467 1.475 1.043 1.808"/>
    </g>
    <g transform="translate(259.85 289.38)">
     <path d="m0 0c.576.333 1.043.063 1.043-.603s-.467-1.475-1.043-1.808c-.577-.333-1.044-.063-1.044.603s.467 1.475 1.044 1.808"/>
    </g>
    <g transform="translate(267.97 296.41)">
     <path d="m0 0c.577.333 1.044.063 1.044-.603 0-.665-.467-1.475-1.044-1.808-.576-.332-1.044-.063-1.044.603s.468 1.475 1.044 1.808"/>
    </g>
    <g transform="translate(276.1 296.41)">
     <path d="m0 0c.577.333 1.044.063 1.044-.603s-.467-1.475-1.044-1.808c-.576-.333-1.044-.063-1.044.603 0 .665.468 1.475 1.044 1.808"/>
    </g>
    <g transform="translate(284.22 315.18)">
     <path d="m0 0c.576.333 1.044.063 1.044-.603s-.468-1.475-1.044-1.808c-.577-.333-1.044-.063-1.044.603s.467 1.475 1.044 1.808"/>
    </g>
    <g transform="translate(292.35 305.86)">
     <path d="m0 0c.576.333 1.044.063 1.044-.603s-.468-1.475-1.044-1.808c-.577-.333-1.044-.063-1.044.603 0 .665.467 1.475 1.044 1.808"/>
    </g>
    <g transform="translate(300.47 315.18)">
     <path d="m0 0c.576.333 1.044.063 1.044-.603s-.468-1.475-1.044-1.808c-.577-.333-1.044-.063-1.044.603 0 .665.467 1.475 1.044 1.808"/>
    </g>
    <g transform="translate(308.59 319.87)">
     <path d="m0 0c.577.333 1.044.063 1.044-.603s-.467-1.475-1.044-1.808c-.576-.333-1.043-.063-1.043.603 0 .665.467 1.475 1.043 1.808"/>
    </g>
    <g transform="translate(316.72 319.87)">
     <path d="m0 0c.577.333 1.044.063 1.044-.603 0-.665-.467-1.475-1.043-1.807-.577-.333-1.044-.064-1.044.602s.467 1.475 1.043 1.808"/>
    </g>
    <g transform="translate(324.84 324.56)">
     <path d="m0 0c.576.333 1.044.063 1.044-.603 0-.665-.468-1.475-1.044-1.808-.576-.332-1.044-.063-1.044.603s.468 1.475 1.044 1.808"/>
    </g>
    <g transform="translate(332.97 324.56)">
     <path d="m0 0c.576.333 1.044.063 1.044-.603 0-.665-.468-1.475-1.044-1.808-.576-.332-1.044-.063-1.044.603s.468 1.475 1.044 1.808"/>
    </g>
    <g transform="translate(194.86 238.67)">
     <path d="m0 0c-.043 0-.086.011-.125.034-.12.07-.16.222-.091.341l8.182 14.105c.035.062.095.105.164.12l7.945 1.696 8.071 16.895c.03.063.084.111.151.131.068.021.14.012.199-.022l8.042-4.643 7.96 2.306 8.071 6.994 8.11 9.361c.031.037.072.063.119.077l8.073 2.33 8.082 7c.046.039.103.061.164.061h7.96l8.058 18.61c.034.08.107.135.192.148.084.015.17-.018.227-.083l7.935-9.163 7.934 9.163c.019.021.04.039.065.053l8.152 4.707c.038.022.081.033.125.033h8.057l8.038 4.641c.038.022.081.033.125.033h8.125c.138 0 .25-.112.25-.25s-.112-.25-.25-.25h-8.058l-8.038-4.64c-.038-.022-.081-.034-.125-.034h-8.056l-8.059-4.652-8.096-9.349c-.095-.109-.283-.109-.379 0l-7.863 9.08-7.966-18.396c-.04-.092-.13-.151-.229-.151h-8.032l-8.052-6.975c-.028-.024-.06-.041-.095-.051l-8.054-2.325-8.086-9.331-8.138-7.055c-.027-.023-.059-.041-.095-.051l-8.115-2.351c-.065-.017-.136-.009-.194.024l-7.9 4.561-8.006-16.762c-.034-.07-.098-.121-.174-.137l-7.958-1.699-8.126-14.009c-.046-.08-.13-.125-.216-.125"/>
    </g>
   </g>
   <g transform="translate(199.11 274.93)">
    <path d="m0 0 7.866 4.564c.398.23.721.067.721-.364 0-.432-.323-.969-.721-1.199l-7.866-4.564c-.399-.23-.722-.067-.722.365 0 .431.324.968.722 1.198" fill="#e0e0e0"/>
   </g>
   <g transform="translate(194.86 272.96)">
    <path d="m0 0c.577.333 1.044.063 1.044-.603s-.467-1.475-1.044-1.808c-.576-.333-1.043-.063-1.043.603 0 .665.467 1.475 1.043 1.808" fill="#27debf"/>
   </g>
   <g clip-path="url(#e)" opacity=".3">
    <g transform="translate(194.86 272.96)">
     <path d="m0 0c.577.333 1.044.063 1.044-.603s-.467-1.475-1.044-1.808c-.576-.333-1.043-.063-1.043.603 0 .665.467 1.475 1.043 1.808"/>
    </g>
   </g>
   <g transform="translate(199.11 270.26)">
    <path d="m0 0 7.866 4.565c.398.23.721.066.721-.365s-.323-.968-.721-1.198l-7.866-4.565c-.399-.23-.722-.066-.722.365 0 .432.324.968.722 1.198" fill="#e0e0e0"/>
   </g>
   <g transform="translate(194.86 268.27)">
    <path d="m0 0c.577.333 1.044.063 1.044-.603 0-.665-.467-1.475-1.044-1.808-.576-.332-1.043-.063-1.043.603s.467 1.475 1.043 1.808" fill="#27debf"/>
   </g>
   <g transform="translate(194.86 205.77)">
    <path d="m0 0c-.062 0-.126.023-.174.07-.099.097-.101.255-.006.353l4.123 4.24 4.047.513 4.086 5.28 4.091-.562 3.975 3.589 4.057 2.433 4.137 5.733 4.108-1.288 3.948 3.528c.102.092.259.083.353-.02.092-.104.083-.262-.019-.354l-4.161-3.717-4.034 1.265-4.031-5.55-4.063-2.43-4.108-3.716-4.034.554-4.037-5.216-4.078-.517-4-4.112c-.05-.051-.115-.076-.18-.076" fill="#27debf"/>
   </g>
   <g transform="translate(195.7 216.89)">
    <path d="m0 0c0-.184.023-.345.068-.483.046-.138.111-.247.194-.328.084-.08.184-.123.305-.13.121-.006.258.034.409.121.15.087.285.204.406.349.121.146.223.309.306.484.083.176.148.36.194.551.045.19.067.377.067.561 0 .183-.022.343-.067.482-.046.139-.111.248-.194.328-.083.081-.185.124-.306.129-.121.007-.256-.033-.406-.12-.151-.087-.288-.204-.409-.349-.121-.146-.221-.308-.305-.484-.083-.176-.148-.36-.194-.551-.045-.191-.068-.378-.068-.56m.762 2.6c.026.026.061.057.103.09.042.035.078.059.111.077.221.129.426.192.614.186.188-.004.351-.065.488-.185.136-.12.243-.29.32-.514.078-.225.117-.492.117-.803 0-.312-.039-.624-.117-.935-.077-.314-.184-.61-.32-.886-.137-.277-.3-.527-.488-.75-.188-.22-.393-.396-.614-.524-.223-.127-.428-.19-.617-.185-.187.004-.349.066-.487.185-.137.12-.243.291-.321.515-.077.222-.115.49-.115.803 0 .176.012.348.038.515.025.168.059.331.101.489.042.159.088.314.14.465.051.152.102.298.154.437l1.082 3.078c.02.041.042.092.066.152.023.059.063.105.118.137l.34.195c.035.021.063.018.086-.009.022-.028.033-.069.033-.124 0-.029-.004-.056-.01-.077-.006-.022-.013-.041-.021-.058z" fill="#455a64"/>
   </g>
   <g transform="translate(199.23 218.36)">
    <path d="m0 0c.02-.086.047-.168.083-.245.035-.077.089-.132.16-.167s.166-.043.282-.025c.118.019.269.082.455.188.124.072.24.162.351.272.11.11.208.236.292.383.083.145.149.305.198.477.05.172.075.359.075.56 0 .195-.024.348-.071.457-.049.109-.113.183-.194.218s-.178.039-.288.012c-.111-.027-.232-.08-.363-.154l-.493-.285c-.044-.025-.082-.024-.113.008-.031.03-.048.078-.048.147v.328c0 .056.011.112.033.171.022.058.042.111.063.159l1.069 2.394-1.711-.988c-.044-.026-.082-.023-.113.007-.031.031-.048.079-.048.147v.328c0 .069.017.135.048.201.031.069.069.114.113.139l2.342 1.352c.044.026.081.023.113-.007.032-.031.047-.079.047-.147v-.329c0-.055-.01-.114-.029-.177-.021-.063-.046-.129-.078-.195l-1.052-2.356c.198.108.38.165.544.172.165.005.305-.037.422-.131.117-.095.208-.239.273-.428.066-.191.099-.429.099-.716 0-.313-.04-.615-.119-.908-.08-.293-.186-.562-.319-.805-.132-.244-.289-.465-.468-.661-.181-.195-.372-.351-.575-.468-.265-.153-.494-.238-.686-.254-.192-.018-.351.016-.476.1-.125.083-.217.205-.279.36-.061.157-.094.334-.099.533 0 .057.013.11.039.166.026.054.057.092.093.112l.273.159c.044.025.079.025.104 0 .027-.025.042-.059.051-.104" fill="#455a64"/>
   </g>
   <g transform="translate(202.77 220.4)">
    <path d="m0 0c.02-.087.048-.167.083-.246.036-.076.09-.133.161-.168s.166-.043.282-.023c.118.017.269.081.455.189.123.071.24.16.351.269.11.111.208.239.291.385.083.145.15.305.199.475.05.173.074.36.074.56 0 .196-.023.349-.071.459-.048.109-.112.183-.193.217-.081.036-.178.04-.288.012-.112-.027-.233-.078-.363-.154l-.494-.285c-.043-.024-.081-.022-.112.009-.032.03-.048.079-.048.145v.33c0 .055.011.112.033.17.022.059.042.111.063.16l1.069 2.392-1.712-.988c-.044-.025-.081-.021-.113.008-.031.032-.047.08-.047.146v.331c0 .066.016.134.047.201.032.067.069.114.113.139l2.342 1.351c.044.026.081.023.113-.007.032-.032.048-.079.048-.147v-.329c0-.056-.011-.114-.029-.177-.021-.064-.046-.129-.078-.197l-1.052-2.356c.198.11.379.166.543.173.165.007.306-.038.423-.132.117-.093.208-.236.273-.427.066-.191.099-.43.099-.717 0-.31-.04-.614-.119-.906-.08-.293-.186-.561-.319-.806-.132-.245-.289-.464-.469-.66s-.371-.352-.574-.468c-.265-.154-.495-.238-.686-.254-.193-.017-.352.016-.477.1-.124.084-.216.203-.279.36-.061.157-.094.335-.098.533 0 .056.013.111.039.166.026.053.057.091.092.112l.274.158c.044.025.079.024.104.001.026-.025.042-.061.05-.104" fill="#455a64"/>
   </g>
   <g transform="translate(195.59 202.54)">
    <path d="m0 0 35.102 20.342c.398.23.722.067.722-.365s-.324-.968-.722-1.198l-35.102-20.342c-.398-.23-.722-.066-.721.365 0 .432.323.968.721 1.198" fill="#e0e0e0"/>
   </g>
   <g transform="translate(195.59 226.01)">
    <path d="m0 0 7.866 4.565c.399.23.721.066.721-.365 0-.432-.322-.968-.721-1.198l-7.866-4.565c-.398-.23-.722-.066-.721.365 0 .432.323.968.721 1.198" fill="#e0e0e0"/>
   </g>
   <g transform="translate(194.86 177.65)">
    <path d="m0 0c-.062 0-.126.024-.174.071-.099.096-.101.254-.006.353l4.123 4.239 4.074.516 4.103 3.586 3.954 1.078 4.123 8.208 4.135-2.024 3.987 3.514.068.013 3.959.751 3.996 6.911c.069.121.223.16.342.092.12-.07.16-.223.091-.342l-4.111-7.11-4.116-.781-4.136-3.644-3.99 1.954-4-7.966-4.114-1.121-4.077-3.595-4.051-.515-4-4.112c-.05-.051-.115-.076-.18-.076" fill="#27debf"/>
   </g>
   <g clip-path="url(#d)" opacity=".3">
    <g transform="translate(194.86 177.65)">
     <path d="m0 0c-.062 0-.126.024-.174.071-.099.096-.101.254-.006.353l4.123 4.239 4.074.516 4.103 3.586 3.954 1.078 4.123 8.208 4.135-2.024 3.987 3.514.068.013 3.959.751 3.996 6.911c.069.121.223.16.342.092.12-.07.16-.223.091-.342l-4.111-7.11-4.116-.781-4.136-3.644-3.99 1.954-4-7.966-4.114-1.121-4.077-3.595-4.051-.515-4-4.112c-.05-.051-.115-.076-.18-.076"/>
    </g>
   </g>
   <g transform="translate(196.93 187.62)">
    <path d="m0 0c0-.067-.016-.134-.047-.201-.032-.068-.069-.114-.113-.139l-.244-.14c-.044-.026-.081-.023-.114.007-.031.031-.046.079-.046.147v5.043l-.963-1.682c-.036-.069-.076-.11-.119-.124-.044-.014-.08-.004-.108.03l-.142.202c-.028.037-.039.093-.033.165.006.068.028.136.063.198l1.271 2.237c.033.054.064.094.096.119.031.023.062.045.095.064l.244.14c.044.026.081.022.113-.007.031-.031.047-.08.047-.147z" fill="#455a64"/>
   </g>
   <g transform="translate(199.53 192.24)">
    <path d="m0 0c.119.233.208.453.268.658.059.205.088.446.088.718 0 .325-.061.559-.184.706-.122.145-.317.141-.582-.013-.139-.08-.257-.179-.354-.295-.097-.118-.178-.249-.244-.393-.064-.143-.116-.296-.154-.455-.037-.158-.068-.319-.093-.479-.012-.074-.031-.137-.061-.191-.031-.053-.061-.09-.092-.108l-.275-.158c-.035-.021-.065-.018-.091.006-.026.025-.038.065-.038.12.002.227.037.476.1.745.064.268.154.532.274.788.119.259.264.497.436.72.173.22.37.396.592.524.218.126.41.185.576.178.167-.008.306-.067.416-.182.111-.112.196-.27.253-.475.058-.205.087-.441.087-.711 0-.195-.011-.377-.03-.547-.02-.171-.052-.34-.098-.51-.046-.169-.105-.341-.176-.519-.071-.174-.158-.362-.262-.561l-1.325-2.67 1.819 1.05c.044.026.081.022.113-.008.031-.03.048-.079.048-.146v-.329c0-.067-.017-.135-.048-.202-.032-.067-.069-.113-.113-.138l-2.562-1.479c-.043-.025-.081-.023-.112.008-.032.03-.049.078-.049.146v.328c0 .069.011.132.031.192.02.061.053.139.101.234z" fill="#455a64"/>
   </g>
   <g transform="translate(201.76 192.58)">
    <path d="m0 0c.008-.574.092-.952.253-1.134.16-.182.395-.183.704-.004.31.178.544.45.704.817.161.368.245.842.253 1.426.004.278.006.537.006.778 0 .242-.002.498-.006.77-.008.576-.092.955-.253 1.14-.16.185-.394.187-.704.01-.309-.178-.544-.453-.704-.824-.161-.37-.245-.846-.253-1.432-.004-.276-.006-.535-.006-.776 0-.242.002-.497.006-.771m2.473 2.975c.004-.271.006-.529.006-.77s-.002-.498-.006-.777c-.004-.355-.036-.705-.099-1.049-.061-.343-.152-.663-.275-.959-.123-.299-.28-.565-.467-.8-.189-.238-.413-.432-.675-.582-.262-.152-.486-.217-.675-.198-.187.019-.344.106-.466.262-.124.154-.215.367-.276.64-.062.273-.095.584-.099.936-.003.273-.005.53-.005.771s.002.5.005.776c.004.358.037.707.099 1.05.061.345.152.663.276.961.122.296.279.565.466.804.189.24.413.436.675.587s.486.215.675.192c.187-.022.344-.111.467-.266.123-.154.214-.367.275-.64.063-.273.095-.584.099-.938" fill="#455a64"/>
   </g>
   <g transform="translate(195.59 174.43)">
    <path d="m0 0 35.102 20.342c.398.23.722.066.722-.365 0-.432-.324-.968-.722-1.198l-35.102-20.342c-.398-.23-.722-.067-.721.365 0 .431.323.968.721 1.198" fill="#e0e0e0"/>
   </g>
   <g transform="translate(195.59 197.89)">
    <path d="m0 0 7.866 4.564c.399.23.721.067.721-.364 0-.432-.322-.968-.721-1.199l-7.866-4.564c-.398-.23-.722-.067-.721.365 0 .431.323.968.721 1.198" fill="#e0e0e0"/>
   </g>
   <g transform="translate(243.6 233.97)">
    <path d="m0 0c-.073 0-.146.032-.195.093-.086.109-.069.266.039.352l4.062 3.241 4.092 4.674 4.152.601 3.962.895 4.101 4.844 4.037-.714 4.048 6.411 4.115-.065 3.979 3.557c.103.091.26.083.354-.02.091-.104.083-.261-.02-.354l-4.126-3.687-4.028.066-4.077-6.459-4.086.722-4.024-4.752-4.144-.934-3.99-.579-4-4.566-4.095-3.271c-.046-.037-.101-.055-.156-.055" fill="#27debf"/>
   </g>
   <g transform="translate(244.45 245.09)">
    <path d="m0 0c0-.184.023-.345.068-.483.046-.138.111-.247.194-.328.084-.08.184-.123.305-.13.121-.006.258.034.409.121.15.087.285.204.406.349.121.146.223.309.306.484.083.176.148.36.194.551.045.19.067.377.067.561 0 .183-.022.343-.067.482-.046.139-.111.248-.194.329-.083.08-.185.123-.306.128-.121.007-.256-.033-.406-.12-.151-.087-.288-.204-.409-.349-.121-.146-.221-.308-.305-.484-.083-.175-.148-.36-.194-.55-.045-.192-.068-.379-.068-.561m.762 2.6c.026.026.061.057.103.09.042.035.078.059.111.077.221.129.426.191.614.186.188-.004.351-.065.488-.185.136-.12.243-.29.32-.514.078-.225.117-.492.117-.803 0-.312-.039-.624-.117-.935-.077-.314-.184-.61-.32-.887-.137-.276-.3-.526-.488-.749-.188-.22-.393-.396-.614-.524-.223-.127-.428-.19-.617-.185-.187.004-.349.066-.487.185-.137.119-.243.291-.321.515-.077.222-.115.49-.115.803 0 .176.012.348.038.515.025.168.059.331.101.489.042.159.088.314.14.465.051.152.102.298.154.437l1.082 3.078c.02.041.042.092.066.153.023.058.063.104.118.136l.34.195c.035.021.063.018.086-.009.022-.028.033-.069.033-.124 0-.029-.004-.056-.01-.077-.006-.022-.013-.041-.021-.058z" fill="#455a64"/>
   </g>
   <g transform="translate(249.33 249.16)">
    <path d="m0 0c.119.233.208.453.269.658.058.205.088.446.088.718 0 .325-.062.559-.184.706-.123.144-.318.14-.583-.013-.139-.08-.256-.178-.354-.295-.096-.118-.178-.249-.243-.393-.065-.143-.117-.296-.155-.455-.037-.158-.068-.319-.092-.479-.012-.074-.032-.138-.061-.192-.032-.052-.062-.089-.093-.107l-.274-.158c-.036-.02-.066-.018-.092.006-.026.025-.038.066-.038.12.003.227.037.476.1.745.064.268.155.532.274.788.119.259.264.497.437.72.172.22.369.397.591.524.219.127.41.185.577.178.166-.008.305-.067.416-.182.11-.112.195-.27.253-.475s.086-.442.086-.711c0-.195-.01-.377-.029-.547-.021-.171-.053-.34-.099-.51-.045-.17-.104-.341-.176-.518-.071-.175-.158-.362-.261-.562l-1.325-2.67 1.818 1.05c.045.026.082.022.114-.008.031-.03.047-.079.047-.146v-.329c0-.067-.016-.135-.047-.201-.032-.068-.069-.114-.114-.139l-2.562-1.478c-.043-.026-.081-.024-.112.007-.032.031-.048.078-.048.147v.327c0 .069.01.132.03.192.02.061.053.139.101.233z" fill="#455a64"/>
   </g>
   <g transform="translate(253.37 254.53)">
    <path d="m0 0c.044.025.081.022.113-.007.032-.032.047-.081.047-.147v-.33c0-.055-.006-.117-.017-.183-.012-.069-.028-.142-.047-.221l-1.321-6.006c-.015-.063-.037-.127-.061-.187-.026-.062-.064-.104-.111-.132l-.274-.158c-.039-.023-.073-.022-.1.006-.028.027-.042.071-.042.131 0 .012.001.027.002.043.002.018.007.043.016.078l1.325 6.019-1.949-1.127c-.044-.025-.082-.022-.114.008-.032.032-.048.081-.048.147v.33c0 .067.016.133.048.201.032.067.07.113.114.139z" fill="#455a64"/>
   </g>
   <g transform="translate(244.34 230.74)">
    <path d="m0 0 35.102 20.342c.398.23.722.067.722-.365s-.324-.968-.722-1.198l-35.102-20.342c-.399-.23-.722-.066-.722.365 0 .432.324.968.722 1.198" fill="#e0e0e0"/>
   </g>
   <g transform="translate(244.34 254.21)">
    <path d="m0 0 7.866 4.565c.398.23.721.066.721-.365s-.323-.968-.721-1.198l-7.866-4.565c-.399-.23-.722-.066-.722.365 0 .432.324.968.722 1.198" fill="#e0e0e0"/>
   </g>
   <g transform="translate(243.6 205.86)">
    <path d="m0 0c-.045 0-.09.012-.13.037-.118.071-.155.226-.084.343l4.152 6.81 4.176-.773 3.929 1.074 4.065 4.959 4.038 1.018 4.105 7.315 4.197-1.218 3.944.747 4.001 3.563c.102.092.261.083.353-.021.091-.103.083-.261-.021-.353l-4.104-3.653-.068-.014-4.131-.783-3.928 1.14-4.018-7.154-4.087-1.033-4.06-4.952-.077-.021-4.117-1.125-.056.01-3.892.719-3.973-6.514c-.048-.078-.13-.121-.214-.121" fill="#27debf"/>
   </g>
   <g clip-path="url(#b)" opacity=".3">
    <g transform="translate(243.6 205.86)">
     <path d="m0 0c-.045 0-.09.012-.13.037-.118.071-.155.226-.084.343l4.152 6.81 4.176-.773 3.929 1.074 4.065 4.959 4.038 1.018 4.105 7.315 4.197-1.218 3.944.747 4.001 3.563c.102.092.261.083.353-.021.091-.103.083-.261-.021-.353l-4.104-3.653-.068-.014-4.131-.783-3.928 1.14-4.018-7.154-4.087-1.033-4.06-4.952-.077-.021-4.117-1.125-.056.01-3.892.719-3.973-6.514c-.048-.078-.13-.121-.214-.121"/>
    </g>
   </g>
   <g transform="translate(246.25 220.24)">
    <path d="m0 0c0 .189-.023.353-.068.491-.046.138-.11.243-.191.315-.081.073-.179.108-.295.11-.114 0-.24-.04-.374-.116-.138-.08-.264-.187-.377-.319-.114-.132-.211-.282-.292-.448-.081-.164-.144-.344-.189-.533-.046-.191-.068-.382-.068-.571 0-.196.022-.361.068-.495.045-.138.108-.241.189-.313s.178-.108.292-.111c.113-.002.239.037.377.118.134.077.26.182.374.317.116.133.214.284.295.45.081.165.145.341.191.53.045.187.068.38.068.575m-.768-2.585c-.019-.018-.046-.039-.083-.061-.036-.024-.061-.042-.077-.05-.19-.111-.375-.17-.552-.178-.178-.008-.337.04-.476.142-.139.104-.251.265-.336.483-.086.22-.128.504-.128.852 0 .311.04.619.119.928.079.308.188.598.324.869s.295.514.476.728c.18.214.371.38.573.496.23.133.438.198.621.194.185-.004.341-.064.47-.183.129-.118.228-.288.297-.51.069-.223.103-.488.103-.8 0-.153-.014-.316-.046-.489-.032-.174-.072-.348-.119-.522-.048-.173-.099-.344-.155-.509-.056-.168-.107-.32-.154-.456l-1.082-3.078c-.021-.042-.041-.092-.066-.152-.024-.06-.063-.106-.119-.137l-.339-.196c-.035-.02-.064-.018-.086.01-.021.026-.032.068-.032.122 0 .031.002.057.008.079.006.023.014.041.022.058z" fill="#455a64"/>
   </g>
   <g transform="translate(247.79 218.34)">
    <path d="m0 0c.02-.087.048-.168.083-.246.035-.076.09-.132.16-.167.071-.036.166-.043.283-.024.117.018.268.08.455.189.123.071.24.161.35.27.111.11.208.237.292.383.083.146.149.306.198.477.051.172.075.359.075.56 0 .196-.024.348-.071.458-.048.108-.112.183-.193.218-.082.035-.178.039-.289.011-.111-.026-.232-.079-.362-.154l-.494-.285c-.043-.025-.081-.023-.112.008-.032.031-.049.079-.049.147v.329c0 .055.012.112.033.171.023.058.042.111.063.159l1.07 2.393-1.712-.988c-.044-.026-.081-.022-.113.008-.031.031-.048.079-.048.146v.329c0 .067.017.134.048.202.032.067.069.113.113.138l2.342 1.352c.044.026.081.022.113-.007.032-.031.047-.08.047-.147v-.33c0-.054-.01-.113-.029-.176-.021-.064-.046-.129-.078-.196l-1.052-2.356c.199.109.38.166.544.172.165.006.306-.037.422-.131.117-.094.208-.238.274-.428.065-.191.098-.43.098-.717 0-.311-.04-.613-.119-.906s-.186-.562-.319-.807c-.132-.243-.289-.463-.468-.659-.181-.196-.371-.352-.574-.468-.265-.154-.495-.238-.687-.254-.192-.018-.351.016-.476.1-.124.083-.217.204-.279.359-.061.158-.094.336-.098.534 0 .057.013.11.038.166.026.053.057.092.093.112l.274.158c.044.025.078.025.103.001.027-.025.042-.06.051-.104" fill="#455a64"/>
   </g>
   <g transform="translate(244.34 202.63)">
    <path d="m0 0 35.102 20.342c.398.23.722.066.722-.365 0-.432-.324-.968-.722-1.198l-35.102-20.342c-.399-.23-.722-.066-.722.365 0 .432.324.968.722 1.198" fill="#e0e0e0"/>
   </g>
   <g transform="translate(244.34 226.09)">
    <path d="m0 0 7.866 4.564c.398.231.721.067.721-.364 0-.432-.323-.968-.721-1.198l-7.866-4.565c-.399-.23-.722-.066-.722.365s.324.968.722 1.198" fill="#e0e0e0"/>
   </g>
   <g transform="translate(296.41 279.62)">
    <path d="m0 0c1.732 1 3.329 1.052 4.631.345l-4.631-12.485z" fill="#27debf"/>
   </g>
   <g transform="translate(291.78 274.62)">
    <path d="m0 0c1.302 2.209 2.898 4.001 4.63 5.001v-12.139z" fill="#27debf"/>
   </g>
   <g transform="translate(288.91 266.9)">
    <path d="m0 0c.519 2.761 1.536 5.457 2.866 7.716l4.63-7.138z" fill="#27debf"/>
   </g>
   <g clip-path="url(#a)" opacity=".3">
    <g transform="translate(291.78 274.62)">
     <path d="m0 0c-1.33-2.259-2.348-4.955-2.866-7.716l7.496.578v12.139c-1.732-1-3.328-2.792-4.63-5.001"/>
    </g>
   </g>
   <g transform="translate(301.04 279.96)">
    <path d="m0 0c1.33-.723 2.348-2.245 2.866-4.406l-7.497-8.079z" fill="#27debf"/>
   </g>
   <g transform="translate(288.91 259.4)">
    <path d="m0 0c-.25 1.038-.389 2.216-.389 3.526s.139 2.649.389 3.974l7.496.579z" fill="#27debf"/>
   </g>
   <g transform="translate(303.91 268.06)">
    <path d="m0 0c-.519-2.761-1.536-5.457-2.866-7.716l-4.631 7.138z" fill="#27debf"/>
   </g>
   <g transform="translate(296.41 255.34)">
    <path d="m0 0c-1.731-1-3.328-1.052-4.63-.345l4.63 12.485z" fill="#27debf"/>
   </g>
   <g transform="translate(288.91 259.4)">
    <path d="m0 0 7.496 8.079-4.63-12.485c-1.33.723-2.347 2.244-2.866 4.406" fill="#27debf"/>
   </g>
   <g transform="translate(303.91 275.56)">
    <path d="m0 0c.25-1.038.389-2.217.389-3.527 0-1.309-.139-2.648-.389-3.974l-7.497-.578z" fill="#27debf"/>
   </g>
   <g transform="translate(301.04 260.34)">
    <path d="m0 0c-1.302-2.209-2.898-4.001-4.631-5.001v12.139z" fill="#27debf"/>
   </g>
   <g transform="translate(292.48 249.15)">
    <path d="m0 0 7.866 4.565c.399.23.722.066.722-.365 0-.432-.323-.968-.722-1.198l-7.866-4.564c-.398-.231-.722-.067-.721.364 0 .432.323.968.721 1.198" fill="#455a64"/>
   </g>
   <g transform="translate(290.74 243.44)">
    <path d="m0 0 11.335 6.577c.398.23.722.067.722-.365s-.324-.968-.722-1.198l-11.335-6.576c-.398-.23-.722-.067-.722.364 0 .432.324.968.722 1.198" fill="#e0e0e0"/>
   </g>
   <g transform="translate(290.74 238.74)">
    <path d="m0 0 11.335 6.577c.398.23.722.067.722-.365s-.324-.968-.722-1.198l-11.335-6.576c-.398-.23-.722-.067-.722.364 0 .432.324.968.722 1.198" fill="#e0e0e0"/>
   </g>
   <g transform="translate(290.74 234.04)">
    <path d="m0 0 11.335 6.577c.398.23.722.067.722-.365s-.324-.968-.722-1.198l-11.335-6.576c-.398-.231-.722-.067-.722.364 0 .432.324.968.722 1.198" fill="#e0e0e0"/>
   </g>
   <g transform="translate(324.84 296.1)">
    <path d="m0 0c1.732 1 3.329 1.052 4.63.345l-4.63-12.485z" fill="#27debf"/>
   </g>
   <g transform="translate(320.21 291.1)">
    <path d="m0 0c1.301 2.209 2.897 4.001 4.63 5.001v-12.14z" fill="#27debf"/>
   </g>
   <g transform="translate(317.35 283.38)">
    <path d="m0 0c.52 2.761 1.537 5.457 2.867 7.716l4.63-7.138z" fill="#27debf"/>
   </g>
   <g transform="translate(329.47 296.44)">
    <path d="m0 0c1.331-.723 2.349-2.245 2.867-4.406l-7.497-8.079z" fill="#27debf"/>
   </g>
   <g transform="translate(317.35 275.88)">
    <path d="m0 0c-.249 1.038-.388 2.216-.388 3.526s.139 2.649.388 3.975l7.497.578z" fill="#27debf"/>
   </g>
   <g transform="translate(332.34 284.54)">
    <path d="m0 0c-.519-2.761-1.536-5.457-2.867-7.716l-4.63 7.138z" fill="#27debf"/>
   </g>
   <g transform="translate(324.84 271.82)">
    <path d="m0 0c-1.732-1-3.329-1.052-4.63-.345l4.63 12.485z" fill="#27debf"/>
   </g>
   <g transform="translate(317.35 275.88)">
    <path d="M 0,0 7.497,8.079 2.867,-4.406 C 1.537,-3.683 0.52,-2.162 0,0" fill="#27debf"/>
   </g>
   <g clip-path="url(#t)" opacity=".3">
    <g transform="translate(320.21 291.1)">
     <path d="m0 0c-1.33-2.259-2.348-4.956-2.867-7.716-.249-1.326-.388-2.665-.388-3.975s.139-2.488.388-3.526c.519-2.162 1.537-3.683 2.867-4.406l4.63 12.484v12.14c-1.733-1-3.329-2.792-4.63-5.001"/>
    </g>
   </g>
   <g transform="translate(332.34 292.04)">
    <path d="m0 0c.25-1.038.388-2.217.388-3.527 0-1.309-.138-2.648-.388-3.974l-7.497-.578z" fill="#27debf"/>
   </g>
   <g transform="translate(329.47 276.82)">
    <path d="m0 0c-1.301-2.209-2.897-4.001-4.63-5.001v12.139z" fill="#27debf"/>
   </g>
   <g transform="translate(320.91 265.57)">
    <path d="m0 0 7.866 4.565c.399.23.721.066.721-.365 0-.432-.322-.968-.721-1.198l-7.866-4.564c-.398-.231-.722-.067-.722.364 0 .432.324.968.722 1.198" fill="#455a64"/>
   </g>
   <g transform="translate(319.18 259.86)">
    <path d="m0 0 11.335 6.577c.398.23.722.067.722-.365s-.324-.968-.722-1.198l-11.336-6.576c-.398-.23-.721-.067-.721.364 0 .432.324.968.722 1.198" fill="#e0e0e0"/>
   </g>
   <g transform="translate(319.18 255.16)">
    <path d="m0 0 11.335 6.577c.398.23.722.067.722-.365s-.324-.968-.722-1.198l-11.336-6.576c-.398-.23-.721-.067-.721.364 0 .432.324.968.722 1.198" fill="#e0e0e0"/>
   </g>
   <g transform="translate(319.18 250.46)">
    <path d="m0 0 11.335 6.577c.398.23.722.067.722-.365s-.324-.968-.722-1.198l-11.336-6.576c-.398-.231-.721-.067-.721.364 0 .432.324.968.722 1.198" fill="#e0e0e0"/>
   </g>
  </g>
  <g clip-path="url(#r)">
   <g transform="translate(434.61 145.14)">
    <path d="m0 0c.584-.236.707-1.361.746-3.593.029-1.689.324-4.642-1.665-5.185-1.989-.544-4.877-.178-6.108 1.441-1.536 2.02-2.565 3.792-4.767 6.264-1.909 2.145-3.981 4.154-4.706 7.117-.653 2.679-.033 3.821 1.801 4.554 2.522 1.008 6.368-2.558 8.312-3.15 1.676-.51 5.803-7.212 6.387-7.448" fill="#263238"/>
   </g>
   <g transform="translate(434.66 147.2)">
    <path d="m0 0-.062-2.738s-2.896-2.123-6.922-.031c-.114.267-.63 3.932-.63 3.932z" fill="#ffa8a7"/>
   </g>
   <g transform="translate(412.09 129.86)">
    <path d="m0 0s.731-2.398 1.108-4.49c.299-1.663.719-4.44.112-5.672-.609-1.232-2.887-1.984-6.391-1.879-2.27.069-5.843-1.393-8.295-2.69-2.533-1.34-7.749-1.778-10.388-1.408-3.11.436-6.3 2.317-6.775 3.62s.225 2.629 7.645 5.595c.067.027 10.291 3.099 13.935 6.943z" fill="#263238"/>
   </g>
   <g transform="translate(412.16 132.82)">
    <path d="m0 0s-.056-2.031-.071-3.193c-.017-1.161-1.427-2.86-4.973-2.653-2.491.145-4.217.854-4.071 2.905l.066 2.96z" fill="#ffa8a7"/>
   </g>
   <g transform="translate(437.26 183.49)">
    <path d="m0 0c-1.052 8.973-2.912 14.331-2.912 14.331s1.255 12.279 1.986 23.931c.79 12.587 1.523 19.068-.952 37.246 0 0-38.59 3.466-39.643-11.08-1.053-14.547.442-51.67.779-58.078.336-6.409 1.314-12.092 2.402-22.491 1.074-10.263 4.187-34.512 4.187-34.512 4.587-2.615 9.049-.018 9.049-.018s3.516 29.054 3.382 36.442c-.164 9.022-2.436 16.176-2.436 16.176s1.042 11.99 1.957 22.42c.916 10.429 1.75 15.43 2.01 19.97l.884.413s.487-18.039.823-24.447c.337-6.408 1.215-12.566 2.798-24.49 1.374-10.345 5.665-32.264 5.665-32.264 4.587-2.615 7.422.162 7.422.162s3.651 27.316 2.599 36.289" fill="#37474f"/>
   </g>
   <g transform="translate(417.07 227.83)">
    <path d="m0 0s9.971 4.637 15.006 8.909c0 0-4.729-6.354-10.809-9.081 0 0-2.643-22.336-2.623-21.892l-.738 22.078z" fill="#263238"/>
   </g>
   <g transform="translate(410.16 310.85)">
    <path d="m0 0 1.503-13.324 12.583.635-1.398 15.549z" fill="#ffa8a7"/>
   </g>
   <g transform="translate(428.99 305.75)">
    <path d="m0 0c4.684.216 7.062-.487 9.167-4.528 2.104-4.041 2.928-16.114 3.66-22.339.733-6.224.915-10.616-1.647-11.257s-12.535-.915-12.535-.915z" fill="#37474f"/>
   </g>
   <g transform="translate(436.89 298.85)">
    <path d="m0 0c-.679 3.729-5.581 7.647-10.171 6.901-1.066-.173-2.104-.349-3.115-.526-.551-2.242-6.693-3.644-12.561-2.263-1.768-.464-7.591-1.554-9.064-2.043-4.217-1.401-5.958-5.551-6.614-19.306 0 0 .337-31.146.172-37.35 10.414-4.395 21.343-4.513 27.413-3.329 12.634 2.464 14.268 7.645 14.268 7.645l-1.881 14.249s3.088 27.587 1.553 36.022" fill="#455a64"/>
   </g>
   <g transform="translate(410.65 306.46)">
    <path d="m0 0 .094-.838s3.638-.909 7.726 0 4.913 2.064 4.913 2.064l-.085.951s1.018.377 1.552-1.189c.535-1.567.592-1.911.592-1.911s.471-2.862-4.336-4.321c-6.915-2.097-11.968 1.308-11.968 1.308l-1.884-.398s1.629 3.757 2.123 4.519 1.178.653 1.178.653z" fill="#37474f"/>
   </g>
   <g transform="translate(372.24 320.75)">
    <path d="m0 0-24.95-13.021 12.398-33.898 23.284 13.044z" fill="#455a64"/>
   </g>
   <g transform="translate(371.1 317.43)">
    <path d="m0 0-20.932-10.923 10.972-29.143 19.534 10.943z" fill="#1f2937"/>
   </g>
   <g clip-path="url(#q)" opacity=".14999">
    <g transform="translate(366.68 314.28)">
     <path d="m0 0s-.182.464-.406 1.037c-.224.572-1.966.231-3.891-.763l-3.686-1.903c-1.925-.994-3.304-2.264-3.08-2.836l.405-1.037z"/>
    </g>
   </g>
   <g transform="translate(366.27 318.43)">
    <path d="m0 0c-.139.358-.896.3-1.693-.131l-1.444-.779s-.889 2.24-4.209.69c-3.319-1.55-2.561-4.146-2.561-4.146s-.686-.378-1.532-.844-1.449-1.139-1.346-1.503l.186-.659 12.853 6.706s-.115.308-.254.666" fill="#27debf"/>
   </g>
   <g transform="translate(364.89 316.93)">
    <path d="m0 0c-1.195-.588-1.666-.872-1.322-1.754.393-1.009.759-1.732.759-1.732l-5.685-2.974s-.474 1.282-.681 1.776c-.207.496-.623.731-1.527.258l-.338.357 8.967 4.57z" fill="#27debf"/>
   </g>
   <g clip-path="url(#p)" opacity=".3">
    <g transform="translate(364.89 316.93)">
     <path d="m0 0c-1.195-.588-1.666-.872-1.322-1.754.393-1.009.759-1.732.759-1.732l-5.685-2.974s-.474 1.282-.681 1.776c-.207.496-.623.731-1.527.258l-.338.357 8.967 4.57z"/>
    </g>
   </g>
   <g transform="translate(366.92 314.23)">
    <path d="m0 0s-.182.464-.405 1.037c-.224.572-1.966.231-3.891-.763l-3.686-1.903c-1.925-.994-3.305-2.264-3.081-2.836l.406-1.037z" fill="#27debf"/>
   </g>
   <g transform="translate(401.98 300.91)">
    <path d="m0 0c-5.76-.5-8.214-1.55-12.537-9.348-4.693-8.463-13.714-23.778-14.859-25.712-1.591-2.69-1.891-6.781-.518-9.253 1.283-2.307 5.353-3.363 9.969 1.85 5.487 6.199 15.698 21.339 15.698 21.339s8.674 11.444 2.247 21.124" fill="#ffa8a7"/>
   </g>
   <g transform="translate(376.46 254.83)">
    <path d="m0 0c-4.415.536-14.728 14.526-17.66 19.097-3.211 5.004-6.202 7.409-8.935 9.427-4.674 3.453-3.993 8.758-1.954 13.62.706 1.684 3.101.588 3.101.588l.844-2.307 1.461-3.995c.99-.919 1.554-1.219 1.62-.945.125.515-.728 2.665-.706 4.904.024 2.694 1.911.924 2.474-.021.564-.945 1.223-2.481 1.991-4.451.943-2.412.553-4.853 1.699-6.497s16.532-16.385 16.532-16.385z" fill="#ffa8a7"/>
   </g>
   <g transform="translate(403.09 301.22)">
    <path d="m0 0c-3.49.086-7.684-.471-10.932-4.69-3.247-4.221-16.248-27.169-16.248-27.169l-7.296 6.539s-4.587-2.648-5.609-7.929c0 0 3.522-5.581 6.606-8.965 3.083-3.385 6.523-5.73 9.342-4.691 2.82 1.039 5.7 3.274 11.772 11.726s12.698 18.431 12.698 18.431 4.184 9.748-.333 16.748" fill="#37474f"/>
   </g>
   <g transform="translate(401.29 327.16)">
    <path d="m0 0s-3.142-4.767-2.784-5.235 2.67-.891 2.67-.891z" fill="#f28f8f"/>
   </g>
   <g transform="translate(402.76 330.75)">
    <path d="m0 0c-1.604 0-2.91-1.305-2.91-2.911 0-1.605 1.306-2.911 2.91-2.911 1.605 0 2.911 1.306 2.911 2.911 0 1.606-1.306 2.911-2.911 2.911m0-6.654c-2.063 0-3.742 1.679-3.742 3.743s1.679 3.744 3.742 3.744c2.064 0 3.743-1.68 3.743-3.744s-1.679-3.743-3.743-3.743" fill="#263238"/>
   </g>
   <g transform="translate(410.02 340.35)">
    <path d="m0 0c-6.356-1.341-8.192-4.135-8.791-14.234-.626-10.553.451-13.87 1.837-15.29.936-.959 6.137-1.133 8.76-.409 3.284.905 10.704 3.535 14.179 8.843 4.088 6.245 5.162 14.708.786 18.18-6.16 4.887-14.183 3.456-16.771 2.91" fill="#ffa8a7"/>
   </g>
   <g transform="translate(410.24 310.12)">
    <path d="m0 0-.295 1.944s-3.059-1.762-6.518-1.478c1.212-.598 4.377-.769 6.813-.466" fill="#f28f8f"/>
   </g>
   <g transform="translate(399.37 328.63)">
    <path d="m0 0 11.303-1.462-.455-.795-10.848 1.408z" fill="#263238"/>
   </g>
   <g transform="translate(400.14 336.27)">
    <path d="m0 0c.479-.068.97-.042 1.436.087-.416-.904-.023-2.055.775-2.65.797-.596 1.901-.68 2.85-.378-.344-.586-.457-1.303-.312-1.966.304-1.383 1.862-2.581 3.293-2.376.067-1.477.086-2.921 1.663-3.594 0 0 1.005 3.9 4.292 3.41 3.31-.494 3.756-4.712 1.671-7.275-2.072-2.546-4.005-1.592-4.029-1.58.193-.096.258-1.34.326-1.575.209-.731.493-1.458.845-2.133.712-1.366 1.734-2.573 2.975-3.487 1.722-1.269 3.824-2.175 5.965-1.66 1.864.448 3.556 1.73 4.346 3.497.199.444.356.928.709 1.263.43.409 1.057.51 1.62.701 1.298.44 2.383 1.467 2.891 2.739.51 1.271.435 2.764-.2 3.977 1.56.396 2.844 1.724 3.188 3.295.344 1.572-.267 3.314-1.518 4.327 1.863 1.14 2.827 3.572 2.251 5.679-.495 1.81-1.998 3.095-3.758 3.604-1.284.371-.79.573-1.187 1.83-.271.855-.783 1.638-1.479 2.206-1.199.979-2.905 1.297-4.376.814-.285 1.637-1.593 2.974-3.175 3.415-.717.201-1.513.277-2.244.088-.527-.137-1.611-.627-1.809-1.132-.669.658-.886 1.526-1.703 2.124-.831.608-1.854.963-2.886.96-1.707-.005-3.378-.988-4.211-2.478-1.146 1.195-2.787 1.939-4.44 1.868-1.654-.071-3.277-1.007-4.047-2.472-.772-1.464-.586-3.414.545-4.622-1.021-.426-1.957-1.139-2.456-2.125-.541-1.07-.466-2.41.346-3.319.394-.439.649-.731 1.241-.923.197-.063.398-.11.602-.139" fill="#263238"/>
   </g>
   <g transform="translate(409.78 323.17)">
    <path d="m0 0 .117 4.415c-1.219.032-2.233-.93-2.265-2.149-.033-1.219.929-2.233 2.148-2.266" fill="#263238"/>
   </g>
  </g>
  <g transform="matrix(.85823 .47926 .51544 -.8183 263.54 -44.914)" fill="#27debf" stroke-width=".75" aria-label="CEX/DEX/DeFi">
   <path d="m81.039-404q-1.5527.80566-3.2373 1.2158-1.6846.41016-3.5156.41016-5.4639 0-8.6572-3.0469-3.1934-3.0615-3.1934-8.291 0-5.2441 3.1934-8.291 3.1934-3.0615 8.6572-3.0615 1.8311 0 3.5156.41015 1.6846.41016 3.2373 1.2158v4.5264q-1.5674-1.0693-3.0908-1.5674-1.5234-.49805-3.208-.49805-3.0176 0-4.7461 1.9336-1.7285 1.9336-1.7285 5.332 0 3.3838 1.7285 5.3174 1.7285 1.9336 4.7461 1.9336 1.6846 0 3.208-.49804 1.5234-.49805 3.0908-1.5674z"/>
   <path d="m85.711-424.67h15.22v4.2627h-9.5801v4.0723h9.0088v4.2627h-9.0088v5.0098h9.9023v4.2627h-15.542z"/>
   <path d="m118.39-413.96 7.5879 11.162h-5.874l-5.1123-7.4707-5.0684 7.4707h-5.9033l7.5879-11.162-7.2949-10.708h5.8887l4.79 7.0459 4.7754-7.0459h5.918z"/>
   <path d="m134.29-424.67h3.252l-7.7197 24.653h-3.2373z"/>
   <path d="m145.93-420.41v13.345h2.0215q3.457 0 5.2734-1.7139 1.8311-1.7139 1.8311-4.9805 0-3.252-1.8164-4.9512t-5.2881-1.6992zm-5.6396-4.2627h5.9473q4.9805 0 7.4121.71777 2.4463.70312 4.1894 2.4023 1.5381 1.4795 2.2852 3.4131.74707 1.9336.74707 4.3799 0 2.4756-.74707 4.4238-.74707 1.9336-2.2852 3.4131-1.7578 1.6992-4.2188 2.417-2.4609.70312-7.3828.70312h-5.9473z"/>
   <path d="m165.19-424.67h15.22v4.2627h-9.5801v4.0723h9.0088v4.2627h-9.0088v5.0098h9.9024v4.2627h-15.542z"/>
   <path d="m197.87-413.96 7.5879 11.162h-5.874l-5.1123-7.4707-5.0684 7.4707h-5.9033l7.5879-11.162-7.2949-10.708h5.8887l4.79 7.0459 4.7754-7.0459h5.918z"/>
   <path d="m213.77-424.67h3.252l-7.7197 24.653h-3.2373z"/>
   <path d="m225.41-420.41v13.345h2.0215q3.457 0 5.2734-1.7139 1.8311-1.7139 1.8311-4.9805 0-3.252-1.8164-4.9512-1.8164-1.6992-5.2881-1.6992zm-5.6396-4.2627h5.9473q4.9805 0 7.4121.71777 2.4463.70312 4.1894 2.4023 1.5381 1.4795 2.2852 3.4131.74707 1.9336.74707 4.3799 0 2.4756-.74707 4.4238-.74707 1.9336-2.2852 3.4131-1.7578 1.6992-4.2188 2.417-2.4609.70312-7.3828.70312h-5.9473z"/>
   <path d="m260.82-411.05v1.4941h-12.261q.19043 1.8457 1.333 2.7686t3.1934.92285q1.6553 0 3.3838-.4834 1.7432-.49805 3.5742-1.4941v4.043q-1.8604.70312-3.7207 1.0547-1.8604.36621-3.7207.36621-4.4531 0-6.9287-2.2559-2.4609-2.2705-2.4609-6.3574 0-4.0137 2.417-6.3135 2.4316-2.2998 6.6797-2.2998 3.8672 0 6.1816 2.3291 2.3291 2.3291 2.3291 6.2256zm-5.3906-1.7432q0-1.4941-.87891-2.4024-.86425-.92285-2.2705-.92285-1.5234 0-2.4756.86426-.95215.84961-1.1865 2.4609z"/>
   <path d="m265.02-424.67h15.22v4.2627h-9.5801v4.0723h9.0088v4.2627h-9.0088v9.2725h-5.6396z"/>
   <path d="m285.28-419.21h5.2441v16.406h-5.2441zm0-6.3867h5.2441v4.2774h-5.2441z"/>
  </g>
 </g>
</svg>
